<svg width="25" height="24" viewBox="0 0 25 24" fill="none" xmlns="http://www.w3.org/2000/svg">
<g id="instagram (2) 1" clip-path="url(#clip0_462_27)">
<path id="Vector" d="M24.4279 7.05249C24.3694 5.77515 24.1666 4.90283 23.8699 4.13965C23.5687 3.33893 23.0963 2.61365 22.4858 2.01416C21.8865 1.40369 21.1611 0.931091 20.3604 0.6297C19.597 0.333252 18.7249 0.130554 17.4475 0.0725098C16.1678 0.013916 15.7589 0 12.5 0C9.24109 0 8.83221 0.013916 7.55249 0.0721435C6.27515 0.130554 5.40302 0.333435 4.63965 0.630066C3.83893 0.931274 3.11365 1.40369 2.51416 2.01416C1.90369 2.61346 1.43109 3.33875 1.1297 4.13947C0.833252 4.90283 0.630554 5.77515 0.57251 7.05231C0.513916 8.33221 0.5 8.74091 0.5 11.9998C0.5 15.2589 0.513916 15.6678 0.57251 16.9475C0.630737 18.2247 0.833618 19.097 1.13025 19.8604C1.43146 20.6609 1.90387 21.3864 2.51434 21.9857C3.11365 22.5961 3.83911 23.0685 4.63983 23.3698C5.40302 23.6666 6.27533 23.8693 7.55267 23.9277C8.83258 23.9861 9.24127 23.9998 12.5002 23.9998C15.7591 23.9998 16.168 23.9861 17.4477 23.9277C18.725 23.8693 19.5972 23.6666 20.3605 23.3698C21.9724 22.7465 23.2466 21.4722 23.8699 19.8604C24.1667 19.097 24.3694 18.2247 24.4279 16.9475C24.4861 15.6676 24.5 15.2589 24.5 12C24.5 8.74091 24.4861 8.33221 24.4279 7.05249ZM22.2678 16.8492C22.2145 18.0192 22.0189 18.6546 21.8547 19.0774C21.4509 20.124 20.6238 20.9511 19.5772 21.3549C19.1544 21.5191 18.519 21.7147 17.349 21.7679C16.0839 21.8258 15.7043 21.8379 12.5 21.8379C9.29547 21.8379 8.91608 21.8258 7.65082 21.7679C6.48096 21.7147 5.84558 21.5191 5.42261 21.3549C4.90149 21.1624 4.42999 20.8557 4.04291 20.4571C3.64429 20.07 3.33759 19.5987 3.14514 19.0774C2.9809 18.6546 2.78534 18.0192 2.73206 16.8492C2.67438 15.5839 2.66211 15.2043 2.66211 12.0002C2.66211 8.79584 2.67438 8.41644 2.73206 7.151C2.78552 5.98096 2.9809 5.34558 3.14514 4.92279C3.33759 4.40149 3.64447 3.92999 4.04291 3.54291C4.42999 3.14429 4.90149 2.83759 5.42279 2.64532C5.84558 2.4809 6.48096 2.28552 7.651 2.23206C8.91626 2.17438 9.29584 2.16211 12.5 2.16211H12.4998C15.704 2.16211 16.0836 2.17438 17.349 2.23224C18.519 2.28552 19.1542 2.48108 19.5772 2.64532C20.0983 2.83777 20.5698 3.14447 20.9569 3.54291C21.3555 3.92999 21.6622 4.40149 21.8545 4.92279C22.0189 5.34558 22.2145 5.98096 22.2678 7.151C22.3254 8.41626 22.3377 8.79584 22.3377 12C22.3377 15.2043 22.3256 15.5837 22.2678 16.8492Z" fill="#27AE60"/>
<path id="Vector_2" d="M12.4999 5.83777C9.09674 5.83777 6.33789 8.5968 6.33789 12C6.33789 15.4032 9.09674 18.162 12.4999 18.162C15.9033 18.162 18.6622 15.4032 18.6622 12C18.6622 8.5968 15.9033 5.83777 12.4999 5.83777ZM12.4999 15.9999C10.291 15.9998 8.5 14.209 8.50018 11.9998C8.50018 9.79083 10.291 7.99988 12.5001 7.99988C14.7093 8.00006 16.5001 9.79083 16.5001 11.9998C16.5001 14.209 14.7091 15.9999 12.4999 15.9999Z" fill="#27AE60"/>
<path id="Vector_3" d="M20.3454 5.59442C20.3454 6.38965 19.7007 7.03436 18.9055 7.03436C18.11 7.03436 17.4653 6.38965 17.4653 5.59442C17.4653 4.79901 18.11 4.1543 18.9055 4.1543C19.7007 4.1543 20.3454 4.79901 20.3454 5.59442Z" fill="#27AE60"/>
</g>
<defs>
<clipPath id="clip0_462_27">
<rect width="24" height="24" fill="white" transform="translate(0.5)"/>
</clipPath>
</defs>
</svg>
