<svg width="27" height="22" viewBox="0 0 27 22" fill="none" xmlns="http://www.w3.org/2000/svg">
<path id="Vector" d="M8.67677 21.9998C18.4887 21.9998 23.8542 13.5366 23.8542 6.19785C23.8542 5.95746 23.8495 5.71809 23.8391 5.47997C24.8806 4.69599 25.7859 3.71768 26.5 2.60409C25.5443 3.04647 24.5156 3.34407 23.4367 3.47852C24.538 2.79079 25.3836 1.70322 25.7823 0.40665C24.7516 1.04275 23.6102 1.50496 22.3951 1.75465C21.4217 0.675134 20.0357 0 18.5012 0C15.5555 0 13.1665 2.4872 13.1665 5.55308C13.1665 5.98905 13.2134 6.41285 13.3048 6.8195C8.87137 6.58715 4.93999 4.37732 2.30928 1.01673C1.85126 1.83746 1.58704 2.791 1.58704 3.80834C1.58704 5.73503 2.52887 7.43618 3.96086 8.43123C3.08568 8.40314 2.26366 8.15304 1.54498 7.73668C1.54419 7.76002 1.54419 7.78273 1.54419 7.80752C1.54419 10.4973 3.38283 12.7431 5.8239 13.252C5.3756 13.379 4.90388 13.4473 4.4173 13.4473C4.07413 13.4473 3.73969 13.4122 3.41457 13.3472C4.09377 15.5539 6.06313 17.1596 8.39787 17.2047C6.57213 18.6945 4.27209 19.582 1.77251 19.582C1.34245 19.582 0.917557 19.5564 0.5 19.5052C2.86073 21.0805 5.66422 22 8.67697 22" fill="#27AE60"/>
</svg>
