<svg width="251" height="251" viewBox="0 0 251 251" fill="none" xmlns="http://www.w3.org/2000/svg">
<g id="eating chocolate-cuate 1">
<g id="freepik--background-complete--inject-82">
<path id="Vector" d="M85.9408 83.8147L28.5153 94.6447L44.7103 180.519L102.136 169.689L85.9408 83.8147Z" fill="#C7C7C7"/>
<path id="Vector_2" d="M102.149 169.679L104.315 169.27L88.1199 83.396L85.9542 83.8044L102.149 169.679Z" fill="#A6A6A6"/>
<path id="Vector_3" d="M44.7925 145.047L62.2505 141.755L58.9581 124.297L41.5 127.589L44.7925 145.047Z" fill="#EBEBEB"/>
<path id="Vector_4" d="M66.2288 144.772L62.2429 141.76L44.7884 145.053L42.173 149.31L66.2288 144.772Z" fill="#DBDBDB"/>
<path id="Vector_5" d="M37.5094 124.581L41.4903 127.593L58.9498 124.3L61.5652 120.043L37.5094 124.581Z" fill="white"/>
<path id="Vector_6" d="M37.5094 124.581L41.4903 127.593L44.7884 145.053L42.173 149.31L37.5094 124.581Z" fill="white"/>
<path id="Vector_7" d="M66.2288 144.772L62.2429 141.76L58.9498 124.3L61.5652 120.043L66.2288 144.772Z" fill="#DBDBDB"/>
<path id="Vector_8" d="M71.7159 139.963L89.174 136.67L85.8815 119.212L68.4235 122.505L71.7159 139.963Z" fill="#EBEBEB"/>
<path id="Vector_9" d="M93.1511 139.692L89.1652 136.68L71.7056 139.973L69.0902 144.23L93.1511 139.692Z" fill="#DBDBDB"/>
<path id="Vector_10" d="M64.4266 119.506L68.4125 122.513L85.8721 119.22L88.4875 114.963L64.4266 119.506Z" fill="white"/>
<path id="Vector_11" d="M64.4266 119.506L68.4125 122.513L71.7056 139.973L69.0902 144.23L64.4266 119.506Z" fill="white"/>
<path id="Vector_12" d="M93.1511 139.692L89.1652 136.68L85.8721 119.22L88.4875 114.963L93.1511 139.692Z" fill="#DBDBDB"/>
<path id="Vector_13" d="M49.9583 172.427L67.4164 169.135L64.124 151.677L46.6659 154.969L49.9583 172.427Z" fill="#EBEBEB"/>
<path id="Vector_14" d="M71.3943 172.151L67.4085 169.139L49.9489 172.432L47.3385 176.689L71.3943 172.151Z" fill="#DBDBDB"/>
<path id="Vector_15" d="M42.6699 151.96L46.6558 154.972L64.1154 151.679L66.7308 147.422L42.6699 151.96Z" fill="white"/>
<path id="Vector_16" d="M42.6699 151.96L46.6558 154.972L49.9489 172.432L47.3385 176.689L42.6699 151.96Z" fill="white"/>
<path id="Vector_17" d="M71.3944 172.151L67.4085 169.139L64.1154 151.679L66.7308 147.422L71.3944 172.151Z" fill="#DBDBDB"/>
<path id="Vector_18" d="M76.8818 167.343L94.3398 164.05L91.0474 146.592L73.5894 149.885L76.8818 167.343Z" fill="#EBEBEB"/>
<path id="Vector_19" d="M98.3166 167.071L94.3307 164.059L76.8712 167.352L74.2557 171.609L98.3166 167.071Z" fill="#DBDBDB"/>
<path id="Vector_20" d="M69.5922 146.885L73.578 149.892L91.0376 146.599L93.653 142.347L69.5922 146.885Z" fill="white"/>
<path id="Vector_21" d="M69.5922 146.885L73.578 149.892L76.8712 167.352L74.2557 171.609L69.5922 146.885Z" fill="white"/>
<path id="Vector_22" d="M98.3166 167.071L94.3307 164.059L91.0376 146.599L93.653 142.347L98.3166 167.071Z" fill="#DBDBDB"/>
<path id="Vector_23" d="M39.6264 117.672L57.0845 114.38L53.7921 96.9218L36.334 100.214L39.6264 117.672Z" fill="#EBEBEB"/>
<path id="Vector_24" d="M61.0633 117.393L57.0774 114.381L39.6229 117.674L37.0074 121.931L61.0633 117.393Z" fill="#DBDBDB"/>
<path id="Vector_25" d="M32.3438 97.2023L36.3246 100.214L53.7842 96.9212L56.3996 92.6642L32.3438 97.2023Z" fill="white"/>
<path id="Vector_26" d="M32.3438 97.2023L36.3246 100.214L39.6228 117.674L37.0073 121.931L32.3438 97.2023Z" fill="white"/>
<path id="Vector_27" d="M61.0632 117.393L57.0773 114.381L53.7842 96.9212L56.3996 92.6642L61.0632 117.393Z" fill="#DBDBDB"/>
<path id="Vector_28" d="M66.545 112.589L84.0031 109.296L80.7106 91.8384L63.2526 95.1308L66.545 112.589Z" fill="#EBEBEB"/>
<path id="Vector_29" d="M87.9855 112.312L83.9996 109.3L66.5401 112.594L63.9297 116.851L87.9855 112.312Z" fill="#DBDBDB"/>
<path id="Vector_30" d="M59.2611 92.1221L63.247 95.1341L80.7065 91.8409L83.322 87.584L59.2611 92.1221Z" fill="white"/>
<path id="Vector_31" d="M59.2611 92.1221L63.247 95.1341L66.5401 112.594L63.9297 116.851L59.2611 92.1221Z" fill="white"/>
<path id="Vector_32" d="M87.9855 112.313L83.9997 109.301L80.7065 91.8409L83.322 87.584L87.9855 112.313Z" fill="#DBDBDB"/>
<path id="Vector_33" d="M198.555 52.8302L215.833 48.6949L211.698 31.4171L194.42 35.5524L198.555 52.8302Z" fill="#DBDBDB"/>
<path id="Vector_34" d="M219.961 51.5052L215.835 48.689L198.556 52.8254L196.151 57.2029L219.961 51.5052Z" fill="#C7C7C7"/>
<path id="Vector_35" d="M190.293 32.7304L194.42 35.5466L211.698 31.4102L214.103 27.0327L190.293 32.7304Z" fill="#EBEBEB"/>
<path id="Vector_36" d="M190.293 32.7304L194.42 35.5466L198.556 52.8255L196.151 57.2029L190.293 32.7304Z" fill="#EBEBEB"/>
<path id="Vector_37" d="M219.961 51.5052L215.835 48.689L211.698 31.4102L214.103 27.0327L219.961 51.5052Z" fill="#C7C7C7"/>
<path id="Vector_38" d="M179.834 81.1189L196.712 86.9816L202.574 70.1041L185.697 64.2414L179.834 81.1189Z" fill="#DBDBDB"/>
<path id="Vector_39" d="M199.168 92.7295L197.196 88.1362L180.394 82.3582L176.016 84.7627L199.168 92.7295Z" fill="#C7C7C7"/>
<path id="Vector_40" d="M184.204 60.9679L186.177 65.5562L202.974 71.3392L207.356 68.9346L184.204 60.9679Z" fill="#EBEBEB"/>
<path id="Vector_41" d="M184.204 60.9679L186.177 65.5562L180.394 82.3581L176.016 84.7627L184.204 60.9679Z" fill="#EBEBEB"/>
<path id="Vector_42" d="M199.168 92.7294L197.196 88.1361L202.974 71.3392L207.356 68.9346L199.168 92.7294Z" fill="#C7C7C7"/>
</g>
<g id="freepik--Floor--inject-82">
<path id="Vector_43" d="M27.0176 206.714C90.114 206.407 160.886 206.402 223.982 206.714C160.886 207.025 90.114 207.02 27.0176 206.714Z" fill="#263238"/>
</g>
<g id="freepik--Plant--inject-82">
<path id="Vector_44" d="M192.878 149.506C193.481 152.061 194.113 154.576 194.239 157.196C194.169 157.327 194.184 157.804 194.239 157.673C194.239 158.095 194.896 158.02 194.896 157.603C194.896 157.332 194.896 157.061 194.896 156.795C196.402 154.927 198.581 153.748 200.343 152.126C201.766 150.854 202.801 149.206 203.33 147.372C204.796 142.352 203.425 136.991 205.182 131.961C206.688 127.623 209.419 123.853 211.708 119.913C214.138 115.756 215.93 111.379 216.111 106.524C216.252 102.8 215.81 97.8298 212.973 95.0387C209.961 92.0769 206.237 94.3007 203.937 96.9412C197.261 104.607 194.174 114.29 192.924 124.195C192.236 129.677 191.518 135.189 191.684 140.726C191.791 143.685 192.191 146.626 192.878 149.506Z" fill="#219653"/>
<path id="Vector_45" d="M194.209 159.209C193.844 154.037 193.906 148.844 194.394 143.682C194.394 143.682 194.369 143.652 194.369 143.627C194.284 139.431 193.948 135.249 194.113 131.047C194.318 126.502 194.937 121.986 195.961 117.553C195.961 117.498 196.056 117.513 196.046 117.553C195.226 121.909 194.738 126.321 194.585 130.751C194.502 133.12 194.52 135.492 194.64 137.864C194.681 138.637 194.751 139.415 194.806 140.189C196.549 128.405 200.807 117.134 207.291 107.142C207.381 107.006 207.622 107.142 207.537 107.287C202.907 114.885 199.478 123.151 197.371 131.795C200.584 125.841 205.433 120.952 209.033 115.229C209.033 115.199 209.103 115.229 209.088 115.264C205.855 121.625 200.514 126.645 197.11 132.92C196.518 135.473 196.039 138.05 195.675 140.65C195.194 144.21 194.936 147.796 194.901 151.388C196.854 147.734 198.887 144.235 200.489 140.369C200.529 140.264 200.679 140.334 200.644 140.44C199.284 144.456 197.452 148.783 194.891 152.206C194.891 154.752 194.952 157.297 195.102 159.832C195.499 166.614 196.658 173.3 197.196 180.057C197.2 180.099 197.188 180.14 197.162 180.173C197.137 180.205 197.099 180.226 197.058 180.231C197.016 180.235 196.975 180.223 196.942 180.197C196.91 180.172 196.889 180.134 196.884 180.093C195.519 173.2 194.625 166.223 194.209 159.209Z" fill="#263238"/>
<path id="Vector_46" d="M201.407 106.926C201.412 106.916 201.42 106.908 201.431 106.905C201.441 106.901 201.453 106.901 201.463 106.906C201.473 106.911 201.48 106.919 201.484 106.929C201.488 106.94 201.487 106.951 201.483 106.961C200.248 110.385 199.545 113.854 198.651 117.368C198.643 117.399 198.623 117.426 198.595 117.444C198.568 117.461 198.535 117.468 198.503 117.462C198.471 117.456 198.442 117.439 198.422 117.413C198.402 117.387 198.393 117.355 198.395 117.322C198.762 113.763 200.032 110.209 201.407 106.926Z" fill="#263238"/>
<path id="Vector_47" d="M174.616 124.576C175.23 126.658 175.974 128.698 176.845 130.686C178.642 134.948 180.574 138.878 180.504 143.612C180.474 145.721 180.323 147.834 180.75 149.917C181.156 151.713 181.822 153.44 182.728 155.043C184.766 158.793 187.457 162.121 189.309 165.986C191.231 170.017 192.513 174.322 193.109 178.747C193.139 178.988 193.516 178.963 193.486 178.722C193.483 178.704 193.483 178.685 193.486 178.667C193.489 178.652 193.489 178.637 193.486 178.622C194.881 168.582 195.132 158.381 193.069 148.431C192.159 144.062 190.966 139.756 189.5 135.54C188.22 131.875 186.518 128.306 183.908 125.395C182.211 123.517 178.481 119.898 175.645 121.313C174.279 121.986 174.244 123.266 174.616 124.576Z" fill="#219653"/>
<path id="Vector_48" d="M182.351 148.421C183.821 151.523 185.48 154.531 187.321 157.427C188.165 158.798 189.023 160.163 189.861 161.539C190.258 162.186 190.71 162.839 191.066 163.547C190.911 162.462 190.76 161.378 190.599 160.294C189.831 155.078 189.118 149.822 187.693 144.732C186.297 139.762 184.254 135.013 182.131 130.319C182.075 130.194 182.271 130.128 182.331 130.249C184.093 133.964 185.886 137.679 187.286 141.549C188.061 143.706 188.701 145.909 189.204 148.145C188.868 143.476 188.197 138.838 187.196 134.265C187.196 134.225 187.251 134.2 187.261 134.265C188.714 138.937 189.422 143.81 189.359 148.702C189.661 150.053 189.922 151.413 190.158 152.784C191.162 158.572 191.96 164.4 192.668 170.238C193.079 166.492 193.145 162.716 192.863 158.958C192.863 158.868 192.984 158.863 192.994 158.958C193.576 162.907 193.492 166.925 192.743 170.846C193.004 173.065 193.253 175.285 193.491 177.507C193.993 182.246 194.721 187.09 194.811 191.859C194.811 191.885 194.801 191.909 194.783 191.927C194.765 191.945 194.741 191.955 194.716 191.955C194.69 191.955 194.666 191.945 194.648 191.927C194.63 191.909 194.62 191.885 194.62 191.859C194.194 189.249 194.053 186.578 193.752 183.948C193.451 181.317 193.139 178.682 192.808 176.051C192.306 172.216 191.804 168.391 191.252 164.566C190.75 163.135 189.691 161.8 188.908 160.55C188.049 159.189 187.191 157.829 186.362 156.448C184.8 153.896 183.442 151.224 182.301 148.456C182.226 148.391 182.326 148.361 182.351 148.421Z" fill="#263238"/>
<path id="Vector_49" d="M182.372 144.074C184.29 147.13 185.89 150.375 187.146 153.758C187.146 153.798 187.09 153.838 187.07 153.793C185.459 150.575 183.883 147.342 182.276 144.124C182.251 144.074 182.341 144.024 182.372 144.074Z" fill="#263238"/>
<path id="Vector_50" d="M221.051 130.219C219.741 132.478 218.245 135.189 218.807 137.899C219.163 139.611 220.418 141.007 220.644 142.754C221.146 146.614 217.306 149.169 214.52 150.992C207.577 155.545 198.059 159.606 196.794 168.908C196.749 169.239 196.177 169.154 196.222 168.833C196.219 168.813 196.219 168.792 196.222 168.772C196.222 168.772 196.192 168.742 196.192 168.717C195.282 164.021 195.324 159.19 196.317 154.511C197.356 149.716 199.45 145.409 201.914 141.198C206.096 134.069 210.519 126.77 216.834 121.308C218.586 119.802 222.165 117.086 223.561 120.495C224.921 123.808 222.657 127.473 221.051 130.219Z" fill="#219653"/>
<path id="Vector_51" opacity="0.1" d="M221.051 130.219C219.741 132.478 218.245 135.189 218.807 137.899C219.163 139.611 220.418 141.007 220.644 142.754C221.146 146.614 217.306 149.169 214.52 150.992C207.577 155.545 198.059 159.606 196.794 168.908C196.749 169.239 196.177 169.154 196.222 168.833C196.219 168.813 196.219 168.792 196.222 168.772C196.222 168.772 196.192 168.742 196.192 168.717C195.282 164.021 195.324 159.19 196.317 154.511C197.356 149.716 199.45 145.409 201.914 141.198C206.096 134.069 210.519 126.77 216.834 121.308C218.586 119.802 222.165 117.086 223.561 120.495C224.921 123.808 222.657 127.473 221.051 130.219Z" fill="black"/>
<path id="Vector_52" d="M214.695 145.334C210.097 150.314 202.778 153.11 198.817 158.687C201.161 150.153 205.047 142.443 211.021 135.761C211.176 135.59 210.935 135.344 210.77 135.51C206.533 139.625 203.145 144.532 200.8 149.952C201.891 146.167 203.328 142.491 205.092 138.969C205.157 138.833 204.967 138.718 204.891 138.848C202.705 142.694 201.141 146.862 200.258 151.197C195.042 163.838 194.555 178.657 195.649 191.98C195.649 192.166 195.956 192.171 195.951 191.98C195.649 181.478 195.82 170.801 198.335 160.55L198.501 159.912C202.813 153.888 210.097 151.117 214.781 145.414C214.821 145.359 214.746 145.279 214.695 145.334Z" fill="#263238"/>
<path id="Vector_53" d="M215.765 141.062C213.35 143.281 210.971 145.545 208.551 147.764C208.547 147.769 208.546 147.775 208.546 147.782C208.546 147.788 208.548 147.794 208.552 147.799C208.556 147.804 208.561 147.808 208.567 147.809C208.574 147.811 208.58 147.811 208.586 147.809C211.324 145.961 213.789 143.739 215.91 141.208C215.923 141.187 215.929 141.163 215.926 141.139C215.924 141.116 215.913 141.093 215.896 141.076C215.879 141.059 215.857 141.049 215.833 141.046C215.809 141.043 215.785 141.049 215.765 141.062Z" fill="#263238"/>
<path id="Vector_54" d="M216.146 131.449C214.009 134.954 211.592 138.279 208.917 141.393C208.882 141.433 208.917 141.494 208.978 141.454C211.979 138.602 214.45 135.24 216.277 131.524C216.287 131.507 216.289 131.486 216.284 131.467C216.279 131.448 216.266 131.431 216.249 131.421C216.232 131.411 216.211 131.408 216.192 131.414C216.173 131.419 216.156 131.431 216.146 131.449Z" fill="#263238"/>
<path id="Vector_55" d="M184.104 178.24H205.268L202.416 206.714H187.367L184.104 178.24Z" fill="#455A64"/>
</g>
<g id="freepik--Hearts--inject-82">
<path id="Vector_56" d="M152.277 43.6187C153.281 51.3395 159.711 57.9358 159.711 57.9358C159.711 57.9358 168.843 56.6958 174.38 51.224C178.993 46.6558 179.314 40.1148 175.464 37.3387C169.937 33.3528 164.656 43.5434 164.656 43.5434C164.656 43.5434 166.764 32.2635 159.952 31.9974C155.218 31.8268 151.443 37.1781 152.277 43.6187Z" fill="#219653"/>
<path id="Vector_57" d="M76.3643 49.7733C80.5861 52.6447 86.6151 52.3586 86.6151 52.3586C86.6151 52.3586 89.9835 47.3386 89.7074 42.2483C89.4765 38.0014 86.4093 34.9994 83.3722 35.6771C79.0148 36.646 81.7156 43.674 81.7156 43.674C81.7156 43.674 77.1072 37.7353 74.0149 40.9582C71.8613 43.2021 72.8453 47.3838 76.3643 49.7733Z" fill="#219653"/>
<path id="Vector_58" d="M90.3902 23.85C91.8962 26.4554 95.2044 27.866 95.2044 27.866C95.2044 27.866 98.2766 26.0437 99.4262 23.2526C100.385 20.9284 99.5116 18.5439 97.7194 18.1322C95.1442 17.5449 94.7978 21.9775 94.7978 21.9775C94.7978 21.9775 93.8741 17.6051 91.3641 18.5439C89.6573 19.1965 89.1202 21.6763 90.3902 23.85Z" fill="#219653"/>
</g>
<g id="freepik--Character--inject-82">
<path id="Vector_59" d="M223.234 229.193C222.501 226.989 183.34 175.479 180.67 174.475C180.364 174.35 162.929 186.809 162.929 186.809C162.211 187.748 129.014 180.81 129.014 180.81L128.763 220.85L189.214 219.444C189.214 219.444 197.391 224.228 204.866 228.129H204.896C209.495 230.544 213.571 232.577 214.73 232.878C217.752 233.646 223.982 231.387 223.234 229.193Z" fill="#FFC4C0"/>
<path id="Vector_60" d="M214.725 232.878C213.561 232.582 209.49 230.549 204.891 228.129C204.891 228.129 204.891 228.129 204.861 228.129C197.391 224.233 189.214 219.444 189.214 219.444L175.76 219.761L154.616 185.81C159.244 186.619 162.693 187.1 162.924 186.814C162.924 186.814 180.348 174.355 180.66 174.49C183.33 175.494 222.486 227.009 223.224 229.208C223.962 231.407 217.753 233.651 214.725 232.878Z" fill="#EBEBEB"/>
<path id="Vector_61" d="M223.591 229.263C222.818 227.004 183.481 175.499 180.74 174.485C179.701 174.094 171.172 179.385 162.929 186.799L188.33 219.971C188.33 219.971 211.729 232.306 214.856 233.099C217.983 233.892 224.364 231.522 223.591 229.263Z" fill="#219653"/>
<path id="Vector_62" d="M220.965 230.097C214.158 221.623 187.507 186.814 181.423 177.924C181.378 177.849 181.423 177.813 181.478 177.879C188.411 186.132 214.776 221.156 221.106 229.986C221.241 230.177 221.111 230.277 220.965 230.097Z" fill="#263238"/>
<path id="Vector_63" d="M210.473 231.201C209.714 230.261 209.158 229.173 208.842 228.006C208.526 226.839 208.456 225.619 208.636 224.424C208.988 222.461 209.936 220.283 211.769 218.977C211.824 218.937 211.899 219.033 211.849 219.083C208.837 222.155 208.23 227.496 210.579 231.131C210.584 231.145 210.584 231.16 210.579 231.173C210.575 231.187 210.566 231.199 210.554 231.207C210.542 231.215 210.527 231.219 210.513 231.218C210.498 231.217 210.484 231.211 210.473 231.201Z" fill="#263238"/>
<path id="Vector_64" d="M191.262 222.02C188.576 218.601 186.744 213.661 187.924 209.354C187.969 209.188 188.205 209.254 188.23 209.399C188.958 213.631 190.136 217.772 191.744 221.754C191.773 221.817 191.776 221.889 191.755 221.954C191.733 222.02 191.687 222.076 191.626 222.109C191.565 222.143 191.494 222.152 191.426 222.136C191.359 222.119 191.3 222.078 191.262 222.02Z" fill="#263238"/>
<path id="Vector_65" d="M194.339 223.892C191.654 220.473 189.821 215.534 191.001 211.227C191.046 211.061 191.282 211.131 191.307 211.272C192.035 215.503 193.213 219.645 194.821 223.626C194.85 223.689 194.854 223.761 194.832 223.827C194.81 223.893 194.764 223.948 194.703 223.982C194.642 224.015 194.571 224.025 194.504 224.008C194.436 223.991 194.378 223.95 194.339 223.892Z" fill="#263238"/>
<path id="Vector_66" d="M197.417 225.764C194.731 222.346 192.899 217.406 194.078 213.104C194.123 212.933 194.359 213.004 194.384 213.144C195.111 217.376 196.289 221.518 197.898 225.498C197.927 225.562 197.931 225.633 197.909 225.699C197.887 225.765 197.841 225.821 197.78 225.854C197.72 225.888 197.648 225.897 197.581 225.88C197.514 225.864 197.455 225.822 197.417 225.764Z" fill="#263238"/>
<path id="Vector_67" d="M200.494 227.637C197.808 224.218 195.976 219.284 197.156 214.976C197.201 214.811 197.437 214.876 197.462 215.022C198.189 219.252 199.367 223.392 200.976 227.371C201.004 227.434 201.008 227.506 200.986 227.572C200.964 227.638 200.919 227.693 200.858 227.727C200.797 227.76 200.726 227.77 200.658 227.753C200.591 227.736 200.532 227.695 200.494 227.637Z" fill="#263238"/>
<path id="Vector_68" d="M174.907 186.383C171.955 182.497 177.989 177.909 180.931 181.799C183.872 185.69 177.859 190.258 174.907 186.383Z" fill="#263238"/>
<path id="Vector_69" d="M189.756 228.651C190.735 224.946 190.082 220.95 189.902 217.19C189.891 217.107 189.861 217.028 189.813 216.959C189.766 216.89 189.703 216.834 189.629 216.794C189.556 216.754 189.474 216.733 189.39 216.731C189.307 216.729 189.224 216.747 189.149 216.784C189.141 216.768 189.129 216.754 189.115 216.743C189.101 216.732 189.084 216.725 189.067 216.721C189.049 216.718 189.031 216.718 189.014 216.723C188.997 216.728 188.981 216.737 188.968 216.749C185.993 219.424 183.773 222.834 182.532 226.638C181.849 228.867 182.116 232.16 184.902 232.797C187.532 233.4 189.179 230.815 189.756 228.651ZM187.015 230.995C182.999 233.505 183.29 227.928 183.857 226.307C184.244 225.263 184.7 224.247 185.223 223.264C186.282 221.206 187.607 219.339 188.857 217.406C188.832 219.259 188.963 221.096 189.008 222.928C189.053 225.152 189.254 229.605 187.01 230.995H187.015Z" fill="#263238"/>
<path id="Vector_70" d="M177.387 206.161C175.338 208.169 176.814 211.101 178.556 212.652C181.59 215.261 185.257 217.025 189.189 217.768C189.206 217.772 189.224 217.771 189.242 217.767C189.259 217.763 189.276 217.754 189.289 217.743C189.303 217.731 189.314 217.716 189.321 217.7C189.327 217.683 189.33 217.665 189.329 217.647C189.412 217.638 189.493 217.61 189.563 217.565C189.633 217.519 189.692 217.458 189.734 217.385C189.776 217.313 189.8 217.232 189.805 217.148C189.81 217.064 189.795 216.981 189.761 216.904C187.959 213.601 186.448 209.841 183.687 207.185C182.075 205.634 179.324 204.274 177.387 206.161ZM186.006 212.451C186.93 214.058 187.773 215.694 188.757 217.266C186.658 216.329 184.607 215.286 182.612 214.143C181.653 213.577 180.734 212.944 179.862 212.251C178.536 211.161 175.379 206.528 180.128 206.603C182.728 206.643 184.907 210.539 186.006 212.451Z" fill="#263238"/>
<path id="Vector_71" d="M166.528 175.846L103.743 171.006C103.743 171.006 76.7006 159.661 54.9941 164.922C30.11 170.946 26.0689 199.826 51.0283 211.894C75.7167 223.832 175.319 221.482 175.319 221.482L152.493 185.173C152.493 185.173 126.946 178.832 95.0236 178.386L160.284 185.414L166.528 175.846Z" fill="#37474F"/>
<path id="Vector_72" d="M134.586 181.378C130.751 180.67 121.454 179.801 117.578 179.37C113.703 178.938 109.747 178.576 105.827 178.255C98.0055 177.613 100.27 177.492 92.4232 177.643C91.6903 177.643 90.9574 177.688 90.2195 177.718C90.0638 177.663 89.8982 177.638 89.7175 177.598C89.341 177.507 88.9645 177.417 88.588 177.342C87.8751 177.211 87.1623 177.106 86.4494 177C84.9434 176.774 83.4776 176.619 81.9967 176.348C81.9063 176.348 81.8762 176.468 81.9616 176.488C83.4676 176.814 84.9083 177.241 86.3992 177.562L87.6844 177.828C84.8079 177.989 81.9365 178.215 79.065 178.481C78.9747 178.481 78.9696 178.627 79.065 178.622C82.9706 178.386 86.9063 178.351 90.8219 178.406C94.7375 178.461 98.5928 178.546 102.473 178.757C110.325 179.194 130.083 181.96 134.466 182.141C134.913 182.151 135.038 181.453 134.586 181.378Z" fill="#263238"/>
<path id="Vector_73" d="M164.104 220.473C162.698 218.229 161.493 215.835 160.208 213.521C158.923 211.206 157.618 208.877 156.318 206.558C153.732 201.935 144.435 186.378 143.522 185.293C143.462 185.223 143.346 185.293 143.371 185.384C143.813 186.583 149.611 196.884 150.946 199.184C153.617 203.777 156.423 208.275 159.189 212.813C159.977 214.108 160.796 215.383 161.599 216.673C162.402 217.963 163.25 219.223 163.983 220.549C164.028 220.629 164.154 220.549 164.104 220.473Z" fill="#263238"/>
<path id="Vector_74" d="M27.7606 232.893C28.4734 230.679 67.1375 178.772 69.7981 177.758C70.0993 177.628 87.6542 189.917 87.6542 189.917C88.3821 190.87 121.519 183.607 121.519 183.607L122.157 223.636L61.6908 222.818C61.6908 222.818 53.5584 227.682 46.1288 231.648C46.1288 231.648 46.1288 231.648 46.1037 231.648C41.5254 234.108 37.4743 236.166 36.3147 236.487C33.2876 237.295 27.0327 235.092 27.7606 232.893Z" fill="#FFC4C0"/>
<path id="Vector_75" d="M36.3046 236.492C37.4693 236.186 41.5154 234.113 46.0936 231.653C46.0936 231.653 46.0936 231.653 46.1238 231.653C53.5534 227.682 61.6858 222.813 61.6858 222.813L75.1444 222.998L95.9473 188.862C91.3289 189.716 87.8851 190.233 87.6542 189.927C87.6542 189.927 70.0842 177.638 69.7981 177.773C67.1375 178.777 28.4785 230.694 27.7606 232.903C27.0427 235.112 33.2876 237.295 36.3046 236.492Z" fill="#EBEBEB"/>
<path id="Vector_76" d="M27.4042 232.963C28.1572 230.699 66.9969 178.817 69.7278 177.773C70.7619 177.377 79.3411 182.582 87.6542 189.917L62.5542 223.335C62.5542 223.335 39.2765 235.885 36.159 236.718C33.0416 237.551 26.6562 235.227 27.4042 232.963Z" fill="#219653"/>
<path id="Vector_77" d="M30.0396 233.771C36.7614 225.237 63.0762 190.173 69.0751 181.222C69.1253 181.147 69.0751 181.112 69.0199 181.182C62.1726 189.495 36.1439 224.776 29.894 233.666C29.7635 233.852 29.894 233.932 30.0396 233.771Z" fill="#263238"/>
<path id="Vector_78" d="M40.5415 234.775C41.2919 233.828 41.837 232.735 42.1421 231.566C42.4472 230.396 42.5056 229.176 42.3136 227.983C41.9421 226.021 40.9733 223.852 39.1259 222.567C39.0707 222.527 39.0004 222.622 39.0456 222.672C42.0576 225.714 42.7503 231.051 40.4361 234.695C40.4308 234.702 40.427 234.71 40.4248 234.718C40.4225 234.727 40.422 234.735 40.4232 234.744C40.4243 234.753 40.4272 234.761 40.4316 234.769C40.4359 234.776 40.4417 234.783 40.4487 234.788C40.4556 234.793 40.4635 234.797 40.4719 234.799C40.4803 234.802 40.4891 234.802 40.4977 234.801C40.5063 234.8 40.5146 234.797 40.5222 234.793C40.5297 234.788 40.5363 234.782 40.5415 234.775Z" fill="#263238"/>
<path id="Vector_79" d="M59.6627 225.398C62.3133 221.954 64.1104 217 62.8805 212.707C62.8354 212.537 62.5994 212.607 62.5743 212.753C61.8914 216.99 60.7554 221.142 59.1858 225.137C59.1651 225.198 59.1667 225.265 59.1903 225.326C59.2139 225.386 59.258 225.436 59.3149 225.467C59.3718 225.498 59.4378 225.509 59.5014 225.496C59.565 225.483 59.6221 225.449 59.6627 225.398Z" fill="#263238"/>
<path id="Vector_80" d="M56.6004 227.311C59.256 223.867 61.0481 218.912 59.8233 214.62C59.7731 214.449 59.5371 214.52 59.512 214.665C58.8309 218.903 57.6965 223.055 56.1285 227.05C56.1023 227.111 56.0999 227.181 56.1217 227.244C56.1436 227.307 56.1881 227.36 56.2468 227.393C56.3055 227.425 56.3741 227.435 56.4394 227.42C56.5047 227.404 56.5621 227.366 56.6004 227.311Z" fill="#263238"/>
<path id="Vector_81" d="M53.5433 229.213C56.1989 225.769 57.991 220.815 56.7611 216.523C56.7159 216.352 56.48 216.422 56.4549 216.568C55.7737 220.805 54.6394 224.957 53.0714 228.952C53.0452 229.014 53.0427 229.083 53.0646 229.147C53.0864 229.21 53.131 229.263 53.1897 229.295C53.2483 229.328 53.317 229.337 53.3823 229.322C53.4476 229.307 53.505 229.268 53.5433 229.213Z" fill="#263238"/>
<path id="Vector_82" d="M50.4812 231.116C53.1367 227.672 54.9289 222.717 53.704 218.425C53.6538 218.26 53.4179 218.325 53.3978 218.47C52.7127 222.707 51.5767 226.859 50.0093 230.855C49.983 230.916 49.9806 230.986 50.0025 231.049C50.0243 231.112 50.0689 231.166 50.1275 231.198C50.1862 231.23 50.2548 231.24 50.3201 231.225C50.3855 231.21 50.4428 231.171 50.4812 231.116Z" fill="#263238"/>
<path id="Vector_83" d="M75.6765 189.62C78.5881 185.705 72.5089 181.172 69.5923 185.102C66.6757 189.033 72.7599 193.541 75.6765 189.62Z" fill="white"/>
<path id="Vector_84" d="M66.1335 236.126C68.9146 235.458 69.1455 232.17 68.4427 229.946C67.1644 226.155 64.9142 222.766 61.9167 220.117C61.9034 220.105 61.8876 220.096 61.8704 220.092C61.8532 220.087 61.8351 220.086 61.8176 220.09C61.8001 220.093 61.7836 220.1 61.7695 220.111C61.7553 220.122 61.7439 220.136 61.736 220.152C61.6599 220.117 61.5766 220.1 61.4927 220.103C61.4088 220.105 61.3269 220.128 61.2534 220.169C61.18 220.209 61.1172 220.267 61.0702 220.336C61.0232 220.406 60.9933 220.485 60.983 220.569C60.8424 224.329 60.225 228.335 61.244 232.029C61.8314 234.183 63.503 236.758 66.1335 236.126ZM61.9318 226.317C61.9318 224.464 62.0723 222.627 62.0272 220.795C63.3545 222.671 64.5859 224.612 65.7169 226.613C66.2481 227.585 66.7143 228.591 67.1124 229.625C67.6947 231.241 68.0512 236.834 64 234.349C61.7711 232.973 61.9017 228.52 61.9318 226.317Z" fill="#263238"/>
<path id="Vector_85" d="M67.0923 210.504C64.3614 213.189 62.8805 216.959 61.1135 220.283C61.0818 220.36 61.0686 220.443 61.0749 220.527C61.0812 220.61 61.1068 220.69 61.1496 220.762C61.1925 220.834 61.2515 220.894 61.3219 220.939C61.3923 220.984 61.4722 221.012 61.5552 221.021C61.554 221.038 61.557 221.056 61.5639 221.073C61.5709 221.09 61.5816 221.104 61.5953 221.116C61.6089 221.128 61.6251 221.136 61.6426 221.14C61.66 221.145 61.6782 221.145 61.6958 221.141C65.6232 220.363 69.2764 218.564 72.288 215.925C74.0149 214.354 75.4606 211.407 73.3924 209.399C71.4296 207.552 68.6886 208.937 67.0923 210.504ZM70.6464 209.886C75.4004 209.766 72.283 214.404 70.9677 215.534C70.1009 216.233 69.1886 216.873 68.2368 217.451C66.2534 218.614 64.2127 219.676 62.1225 220.634C63.0913 219.053 63.9146 217.406 64.8233 215.79C65.9076 213.852 68.031 209.951 70.6464 209.886Z" fill="#263238"/>
<path id="Vector_86" d="M119.411 174.194L131.147 173.757C131.147 173.757 167.251 163.431 185.102 166.057C209.555 169.661 212.482 201.809 194.6 212.617C171.95 226.312 76.7759 224.59 76.7759 224.59L98.3619 187.316C98.3619 187.316 125.871 179.857 156.418 180.65L119.476 179.771L119.411 174.194Z" fill="#37474F"/>
<path id="Vector_87" d="M96.9462 189.711C96.9671 189.649 96.9823 189.585 96.9914 189.52C96.9914 189.47 96.9914 189.42 97.0265 189.364L97.1169 189.008C97.1877 188.761 97.2715 188.518 97.3679 188.28C97.4582 188.039 97.5637 187.803 97.6691 187.572C97.7872 187.341 97.9231 187.12 98.0757 186.91C98.0757 186.91 98.1108 186.885 98.1309 186.87L98.1711 186.844L98.2263 186.819C98.2263 186.819 98.2564 186.819 98.2815 186.819C101.976 186.101 127.111 182.301 130.851 181.855C134.591 181.408 138.381 181.016 142.181 180.67C149.711 179.977 151.217 179.49 158.747 179.56C159.46 179.56 160.168 179.591 160.876 179.611C161.027 179.56 161.187 179.53 161.343 179.495C161.704 179.405 162.066 179.309 162.432 179.234C163.115 179.099 163.803 178.993 164.49 178.883C165.921 178.652 167.357 178.491 168.782 178.215C168.868 178.215 168.903 178.325 168.818 178.346C167.387 178.677 165.981 179.104 164.546 179.425C164.134 179.52 163.722 179.611 163.306 179.696C166.087 179.821 168.858 180.017 171.634 180.243C171.719 180.243 171.724 180.389 171.634 180.384C167.864 180.188 164.059 180.193 160.284 180.283C156.509 180.374 152.789 180.489 149.044 180.73C141.469 181.232 140.008 182.075 132.478 182.924C128.246 183.426 102.619 187.341 98.3669 187.552H98.3167C98.2834 187.651 98.2449 187.748 98.2012 187.843C98.0857 188.079 97.9703 188.305 97.8448 188.531C97.7193 188.757 97.6088 188.968 97.4683 189.179L97.2625 189.485L97.157 189.641C97.1173 189.691 97.082 189.745 97.0516 189.801C97.0463 189.81 97.0392 189.817 97.0307 189.823C97.0222 189.828 97.0127 189.832 97.0026 189.834C96.9926 189.835 96.9823 189.835 96.9726 189.832C96.9628 189.829 96.9538 189.824 96.9461 189.818C96.9383 189.811 96.9322 189.803 96.9279 189.794C96.9237 189.784 96.9215 189.774 96.9215 189.764C96.9215 189.754 96.9237 189.744 96.928 189.735C96.9323 189.726 96.9385 189.717 96.9462 189.711Z" fill="#263238"/>
<path id="Vector_88" d="M84.6572 222.26C85.9975 220.082 87.1321 217.742 88.3569 215.514L92.0416 208.762C94.5014 204.274 103.322 189.184 104.2 188.114C104.255 188.049 104.371 188.114 104.341 188.2C103.929 189.369 98.4271 199.364 97.157 201.593C94.647 206.051 91.9563 210.418 89.3308 214.821C88.5828 216.081 87.8248 217.331 87.0417 218.571C86.2586 219.811 85.4755 221.051 84.7727 222.336C84.7325 222.411 84.612 222.336 84.6572 222.26Z" fill="#263238"/>
<path id="Vector_89" d="M173.772 219.018C170.524 219.269 167.322 219.69 164.119 220.122C160.916 220.554 157.723 221.036 154.536 221.698C161.04 221.685 167.512 220.784 173.772 219.018Z" fill="#263238"/>
<path id="Vector_90" d="M124.893 121.569C142.995 146.338 163.291 169.028 173.642 166.774C185.188 164.264 171.594 132.357 170.168 131.268C168.075 129.667 153.667 119.089 134.697 106.725C116.434 94.8278 114.837 107.82 124.893 121.569Z" fill="#FFC4C0"/>
<path id="Vector_91" d="M145.58 150.941L164.305 124.099C164.305 124.099 145.68 111.168 128.934 102.749C112.187 94.3308 111.82 104.014 120.329 117.809C128.838 131.604 145.58 150.941 145.58 150.941Z" fill="#219653"/>
<path id="Vector_92" d="M164.31 124.094L157.417 133.974L153.672 139.345L153.225 139.988L145.58 150.941C145.58 150.941 128.843 131.644 120.334 117.809C119.406 116.303 118.587 114.848 117.88 113.462C117.854 113.422 117.834 113.377 117.814 113.337C114.195 106.173 113.658 100.817 117.553 99.7825C119.787 99.1801 123.497 100.008 128.934 102.739C145.685 111.168 164.31 124.094 164.31 124.094Z" fill="#219653"/>
<path id="Vector_93" d="M127.749 115.073C127.241 113.927 126.574 112.859 125.766 111.901C125.96 113.141 126.332 114.346 126.87 115.48C127.389 116.627 128.065 117.697 128.878 118.658C128.68 117.414 128.299 116.206 127.749 115.073ZM137.608 133.557C136.456 134.069 135.384 134.746 134.425 135.565C136.909 135.137 139.238 134.067 141.182 132.463C139.943 132.649 138.739 133.018 137.608 133.557ZM147.698 116.941C146.528 116.487 145.299 116.205 144.049 116.103C145.063 116.841 146.179 117.428 147.362 117.844C148.533 118.295 149.762 118.575 151.012 118.678C149.99 117.959 148.876 117.383 147.698 116.966V116.941Z" fill="white"/>
<path id="Vector_94" d="M158.632 122.398C153.031 129.617 147.808 137.122 142.985 144.882C142.914 144.998 143.1 145.118 143.185 145.013C148.792 137.796 154.021 130.295 158.853 122.538C158.943 122.413 158.737 122.277 158.632 122.398Z" fill="#263238"/>
<path id="Vector_95" opacity="0.1" d="M157.417 133.974L153.672 139.345L153.225 139.988L145.58 150.941C145.58 150.941 128.843 131.644 120.334 117.809C119.406 116.303 118.587 114.848 117.88 113.462C117.854 113.422 117.834 113.377 117.814 113.337C114.195 106.173 113.658 100.817 117.553 99.7825L157.417 133.974Z" fill="black"/>
<path id="Vector_96" d="M76.8712 178.456L150.279 174.791C151.217 174.018 139.767 121.986 127.508 104.416C125.214 101.123 113.703 95.38 107.041 102.945C86.2887 126.544 75.9124 177.337 76.8712 178.456Z" fill="#219653"/>
<path id="Vector_97" d="M150.279 174.791L76.8712 178.456C76.1483 177.613 81.8561 148.597 93.5878 124.24C93.7936 123.808 93.9994 123.382 94.2103 122.96C97.915 115.455 102.197 108.457 107.046 102.945C113.708 95.38 125.219 101.123 127.508 104.416C131.905 110.726 136.208 121.484 139.867 132.714C139.927 132.91 139.993 133.105 140.053 133.301C146.484 153.17 150.876 174.299 150.279 174.791Z" fill="#219653"/>
<path id="Vector_98" d="M109.285 106.334C108.115 105.883 106.886 105.601 105.636 105.495C106.649 106.234 107.766 106.821 108.949 107.237C110.119 107.69 111.348 107.972 112.599 108.076C111.58 107.345 110.465 106.759 109.285 106.334ZM123.763 146.845C122.593 146.392 121.364 146.109 120.113 146.007C122.169 147.462 124.569 148.353 127.076 148.592C126.06 147.855 124.945 147.267 123.763 146.845ZM94.4211 146.845C93.2498 146.391 92.0188 146.108 90.7666 146.007C91.7819 146.743 92.8977 147.33 94.0798 147.749C95.2535 148.202 96.4857 148.486 97.7393 148.592C96.7204 147.859 95.6034 147.272 94.4211 146.85V146.845ZM110.857 130.485C110.406 131.656 110.123 132.884 110.018 134.134C111.466 132.076 112.355 129.677 112.599 127.172C111.865 128.19 111.278 129.307 110.857 130.49V130.485ZM92.3679 175.464C92.098 176.198 91.88 176.949 91.7153 177.713L92.4332 177.678C92.7515 177.07 93.0315 176.443 93.2716 175.8C93.7212 174.629 94.0034 173.401 94.1099 172.151C93.3765 173.168 92.7901 174.283 92.3679 175.464ZM139.872 132.714C139.096 132.934 138.339 133.216 137.608 133.557C136.456 134.069 135.384 134.746 134.426 135.565C135.665 135.364 136.869 134.991 138.005 134.456C138.715 134.126 139.401 133.747 140.058 133.321C139.998 133.105 139.932 132.91 139.872 132.714ZM80.5107 161.644L80.1242 161.83C80.0238 162.211 79.9284 162.593 79.833 162.964C80.1944 162.829 80.5559 162.678 80.9073 162.523C82.0561 162.007 83.1259 161.331 84.0849 160.515C82.8442 160.712 81.6396 161.093 80.5107 161.644ZM94.4713 122.859L94.2103 122.985C93.9994 123.407 93.7936 123.833 93.5878 124.265C94.0245 124.104 94.4512 123.924 94.8779 123.738C96.029 123.229 97.0982 122.553 98.0506 121.73C96.8107 121.925 95.6053 122.296 94.4713 122.834V122.859ZM111.354 163.356C110.836 162.209 110.16 161.142 109.346 160.183C109.542 161.423 109.914 162.628 110.45 163.762C110.961 164.911 111.638 165.978 112.458 166.93C112.261 165.684 111.889 164.473 111.354 163.331V163.356ZM138.462 164.586C137.947 163.435 137.271 162.363 136.454 161.403C136.653 162.642 137.025 163.846 137.558 164.982C138.074 166.131 138.75 167.201 139.566 168.16C139.372 166.912 138.997 165.7 138.452 164.561L138.462 164.586ZM127.759 115.099C127.251 113.953 126.584 112.884 125.776 111.926C125.97 113.166 126.342 114.372 126.88 115.505C127.399 116.653 128.075 117.722 128.888 118.683C128.689 117.43 128.305 116.214 127.749 115.073L127.759 115.099Z" fill="white"/>
<path id="Vector_99" d="M95.1792 117.624C76.2638 141.775 57.3736 173.466 62.3584 182.813C67.9106 193.23 97.4984 165.499 98.146 163.833C99.1199 161.378 105.385 144.641 112.127 123.025C118.618 102.217 105.681 104.21 95.1792 117.624Z" fill="#FFC4C0"/>
<path id="Vector_100" d="M73.1313 143.793L104.17 154.184C104.17 154.184 111.324 132.674 114.682 114.235C118.04 95.7967 108.658 98.1711 97.7846 110.219C86.9112 122.267 73.1313 143.793 73.1313 143.793Z" fill="#219653"/>
<path id="Vector_101" d="M94.4713 122.834C93.3243 123.348 92.2574 124.024 91.3037 124.842C92.5415 124.641 93.7447 124.265 94.8779 123.728C96.029 123.219 97.0982 122.543 98.0506 121.72C96.8102 121.918 95.6047 122.293 94.4713 122.834ZM77.6342 137.809C77.1815 138.979 76.8992 140.208 76.7959 141.459C77.5322 140.443 78.1188 139.327 78.5378 138.145C78.9875 136.974 79.2697 135.746 79.3762 134.496C78.6428 135.513 78.0564 136.628 77.6342 137.809ZM110.857 130.49C110.406 131.661 110.123 132.889 110.018 134.139L110.159 133.944C110.56 132.438 110.967 130.861 111.369 129.27C111.183 129.672 111.017 130.078 110.857 130.49ZM94.4211 146.85C93.2498 146.396 92.0188 146.113 90.7666 146.012C91.7819 146.748 92.8977 147.335 94.0798 147.754C95.2537 148.205 96.4859 148.487 97.7393 148.592C96.7204 147.859 95.6034 147.272 94.4211 146.85ZM109.285 106.334C108.115 105.883 106.886 105.601 105.636 105.495C106.649 106.234 107.766 106.821 108.949 107.237C110.119 107.69 111.348 107.972 112.599 108.076C111.58 107.345 110.465 106.759 109.285 106.334Z" fill="white"/>
<path id="Vector_102" d="M113.869 125.108C113.876 125.092 113.877 125.074 113.871 125.058C113.864 125.041 113.852 125.028 113.836 125.021C113.82 125.013 113.802 125.013 113.785 125.019C113.769 125.025 113.755 125.037 113.748 125.053C113.246 126.057 112.774 127.061 112.282 128.105C112.754 126.057 113.186 123.999 113.562 121.931C113.562 121.866 113.472 121.83 113.452 121.896C112.082 126.374 109.536 135.886 108.236 140.384C106.936 144.882 105.43 149.33 104.18 153.843C103.291 153.702 102.815 153.577 102.172 153.497C102.021 153.497 101.931 153.647 102.072 153.712C102.915 154.099 104.582 154.676 104.617 154.561C106.384 150.224 107.759 145.379 109.085 140.891C109.742 138.683 111.524 131.429 112.056 129.195C112.736 127.867 113.341 126.503 113.869 125.108Z" fill="#263238"/>
<path id="Vector_103" d="M104.205 148.276C95.6996 144.937 87.0268 142.042 78.2216 139.601C78.0911 139.566 78.0258 139.782 78.1513 139.832C86.6543 143.178 95.3255 146.081 104.13 148.527C104.27 148.592 104.341 148.326 104.205 148.276Z" fill="#263238"/>
<path id="Vector_104" d="M113.166 103.558C113.598 104.843 120.696 112.774 126.655 111.921C128.602 111.645 127.543 100.952 127.543 100.952L127.649 100.144L129.074 88.854L113.301 80.822C113.301 80.822 112.99 103.01 113.166 103.558Z" fill="#FFC4C0"/>
<path id="Vector_105" d="M129.074 88.854L127.644 100.144L127.543 100.957C127.543 100.957 127.734 102.895 127.804 105.139C119.506 104.697 115.174 98.9041 113.141 94.8178C113.191 88.4073 113.306 80.817 113.306 80.817L129.074 88.854Z" fill="#263238"/>
<path id="Vector_106" d="M146.293 66.2037C152.889 90.9473 138.813 97.6942 133.477 99.1098C128.632 100.4 111.971 104.165 102.855 80.2296C93.7384 56.2943 103.151 45.4059 114.079 41.8768C125.008 38.3478 139.692 41.4551 146.293 66.2037Z" fill="#FFC4C0"/>
<path id="Vector_107" d="M136.223 87.85C136.133 88.0353 135.989 88.1887 135.809 88.2892C135.63 88.3898 135.423 88.4327 135.219 88.4122C135.087 88.4041 134.959 88.3681 134.842 88.3068C134.781 88.7576 134.55 89.168 134.196 89.4544C133.843 89.7408 133.393 89.8815 132.94 89.848C132.69 89.8325 132.447 89.764 132.226 89.6472C132.006 89.5303 131.812 89.3677 131.659 89.1703C131.536 89.2078 131.407 89.2231 131.278 89.2154C131.132 89.2061 130.99 89.165 130.861 89.095C130.711 89.2886 130.513 89.4399 130.287 89.534C130.06 89.6282 129.813 89.6619 129.57 89.6319C129.327 89.6019 129.095 89.5093 128.899 89.363C128.702 89.2168 128.546 89.022 128.448 88.7976C128.349 88.5733 128.31 88.3271 128.335 88.0832C128.36 87.8393 128.447 87.6061 128.589 87.4063C128.732 87.2065 128.923 87.0471 129.145 86.9436C129.368 86.8401 129.613 86.7961 129.857 86.8159C129.977 86.8262 130.095 86.8498 130.209 86.8862C130.203 86.8428 130.203 86.799 130.209 86.7556C130.218 86.605 130.26 86.4583 130.332 86.3257C130.404 86.193 130.504 86.0777 130.625 85.9876C130.377 85.822 130.191 85.579 130.096 85.2965C130 85.014 130.001 84.7078 130.098 84.4258C130.195 84.1438 130.382 83.9018 130.631 83.7375C130.88 83.5733 131.176 83.496 131.474 83.5177C131.737 83.5365 131.989 83.6321 132.199 83.7927C132.409 83.9533 132.567 84.1719 132.653 84.4213C132.875 84.3073 133.123 84.2553 133.371 84.2707C133.663 84.2893 133.94 84.4081 134.154 84.6071C134.307 84.184 134.608 83.8305 135.001 83.6114C135.394 83.3923 135.853 83.3225 136.293 83.4147C136.734 83.5069 137.126 83.755 137.398 84.1134C137.67 84.4717 137.803 84.9162 137.774 85.3651C137.749 85.7107 137.626 86.042 137.417 86.3189C137.814 86.4896 136.388 88.0859 136.223 87.85Z" fill="#219653"/>
<path id="Vector_108" d="M131.971 90.5558C131.964 90.6574 131.937 90.7567 131.891 90.8478C131.846 90.9389 131.783 91.0202 131.706 91.0869C131.629 91.1536 131.539 91.2045 131.443 91.2365C131.346 91.2686 131.244 91.2812 131.142 91.2737C130.99 91.2624 130.845 91.2063 130.724 91.1123C130.604 91.0184 130.514 90.8909 130.466 90.746C130.418 90.601 130.414 90.445 130.454 90.2978C130.495 90.1505 130.578 90.0185 130.693 89.9185C130.809 89.8185 130.951 89.7549 131.103 89.7357C131.254 89.7166 131.408 89.7427 131.545 89.8109C131.681 89.8791 131.795 89.9862 131.87 90.1188C131.946 90.2514 131.981 90.4034 131.971 90.5558Z" fill="#219653"/>
<path id="Vector_109" d="M128.512 85.6312C128.501 85.7823 128.445 85.9267 128.352 86.0463C128.259 86.1659 128.133 86.2552 127.989 86.3031C127.845 86.351 127.69 86.3553 127.544 86.3155C127.398 86.2756 127.267 86.1934 127.167 86.0792C127.068 85.965 127.004 85.8239 126.984 85.6736C126.965 85.5233 126.99 85.3706 127.057 85.2347C127.124 85.0988 127.23 84.9858 127.361 84.9098C127.492 84.8339 127.643 84.7984 127.794 84.8079C127.998 84.8221 128.189 84.9167 128.323 85.0711C128.458 85.2254 128.526 85.4269 128.512 85.6312Z" fill="#219653"/>
<path id="Vector_110" d="M131.022 92.1873C131.018 92.243 131.003 92.2974 130.978 92.3472C130.953 92.397 130.918 92.4412 130.875 92.4773C130.833 92.5133 130.783 92.5405 130.73 92.557C130.677 92.5736 130.621 92.5793 130.565 92.5738C130.482 92.5666 130.403 92.535 130.338 92.483C130.273 92.431 130.225 92.3609 130.2 92.2815C130.175 92.2021 130.173 92.1171 130.196 92.0371C130.219 91.957 130.266 91.8856 130.329 91.8318C130.393 91.778 130.471 91.7443 130.554 91.7348C130.636 91.7253 130.72 91.7406 130.794 91.7786C130.868 91.8166 130.929 91.8757 130.97 91.9484C131.01 92.0212 131.029 92.1043 131.022 92.1873Z" fill="#219653"/>
<path id="Vector_111" d="M128.788 85.7516C128.792 85.6908 128.809 85.6315 128.837 85.5773C128.865 85.5231 128.903 85.4751 128.95 85.4362C128.997 85.3973 129.051 85.3682 129.11 85.3508C129.168 85.3334 129.229 85.328 129.29 85.335C129.376 85.3459 129.458 85.3818 129.524 85.4384C129.59 85.4949 129.639 85.5696 129.663 85.6532C129.687 85.7368 129.687 85.8258 129.661 85.9091C129.636 85.9924 129.586 86.0664 129.519 86.122C129.452 86.1776 129.371 86.2125 129.284 86.2222C129.197 86.2319 129.11 86.2161 129.032 86.1768C128.954 86.1374 128.89 86.0762 128.847 86.0007C128.803 85.9251 128.783 85.8386 128.788 85.7516Z" fill="#219653"/>
<g id="Group" opacity="0.6">
<path id="Vector_112" d="M136.223 87.85C136.133 88.0353 135.989 88.1887 135.809 88.2892C135.63 88.3898 135.424 88.4327 135.219 88.4122C135.087 88.4041 134.959 88.3681 134.842 88.3068C134.781 88.7576 134.55 89.168 134.196 89.4544C133.843 89.7408 133.393 89.8815 132.94 89.848C132.69 89.8325 132.447 89.764 132.227 89.6472C132.006 89.5303 131.813 89.3677 131.66 89.1703C131.536 89.2078 131.407 89.2231 131.278 89.2154C131.132 89.2061 130.99 89.165 130.861 89.095C130.711 89.2886 130.513 89.4399 130.287 89.534C130.06 89.6282 129.813 89.6619 129.57 89.6319C129.327 89.6019 129.095 89.5093 128.899 89.363C128.702 89.2168 128.546 89.022 128.448 88.7976C128.349 88.5733 128.31 88.3271 128.335 88.0832C128.36 87.8393 128.448 87.6061 128.59 87.4063C128.732 87.2065 128.923 87.0471 129.146 86.9436C129.368 86.8401 129.613 86.7961 129.857 86.8159C129.977 86.8262 130.095 86.8498 130.209 86.8862C130.203 86.8428 130.203 86.799 130.209 86.7556C130.218 86.605 130.261 86.4583 130.332 86.3257C130.404 86.193 130.504 86.0777 130.625 85.9876C130.377 85.822 130.191 85.579 130.096 85.2965C130.001 85.014 130.001 84.7078 130.098 84.4258C130.195 84.1438 130.383 83.9018 130.631 83.7375C130.88 83.5733 131.176 83.496 131.474 83.5177C131.737 83.5365 131.989 83.6321 132.199 83.7927C132.409 83.9533 132.567 84.1719 132.654 84.4213C132.875 84.3073 133.123 84.2553 133.371 84.2707C133.663 84.2893 133.94 84.4081 134.155 84.6071C134.308 84.184 134.608 83.8305 135.001 83.6114C135.394 83.3923 135.853 83.3225 136.293 83.4147C136.734 83.5069 137.126 83.755 137.398 84.1134C137.67 84.4717 137.803 84.9162 137.774 85.3651C137.75 85.7107 137.626 86.042 137.418 86.3189C137.814 86.4896 136.388 88.0859 136.223 87.85Z" fill="black"/>
<path id="Vector_113" d="M131.971 90.5558C131.964 90.6574 131.937 90.7567 131.891 90.8478C131.846 90.9389 131.783 91.0202 131.706 91.0869C131.629 91.1536 131.54 91.2045 131.443 91.2365C131.346 91.2686 131.244 91.2812 131.143 91.2737C130.99 91.2624 130.845 91.2063 130.724 91.1123C130.604 91.0184 130.514 90.8909 130.466 90.746C130.418 90.601 130.414 90.445 130.454 90.2978C130.495 90.1505 130.578 90.0185 130.693 89.9185C130.809 89.8185 130.951 89.7549 131.103 89.7357C131.254 89.7166 131.408 89.7427 131.545 89.8109C131.681 89.8791 131.795 89.9862 131.871 90.1188C131.946 90.2514 131.981 90.4034 131.971 90.5558Z" fill="black"/>
<path id="Vector_114" d="M128.512 85.6312C128.501 85.7823 128.445 85.9267 128.352 86.0463C128.259 86.1659 128.133 86.2552 127.989 86.3031C127.845 86.351 127.69 86.3553 127.544 86.3155C127.398 86.2756 127.267 86.1934 127.167 86.0792C127.068 85.965 127.004 85.8239 126.984 85.6736C126.965 85.5233 126.99 85.3706 127.057 85.2347C127.124 85.0988 127.23 84.9858 127.361 84.9098C127.492 84.8339 127.643 84.7984 127.794 84.8079C127.998 84.8221 128.189 84.9167 128.323 85.0711C128.458 85.2254 128.526 85.4269 128.512 85.6312Z" fill="black"/>
<path id="Vector_115" d="M131.022 92.1873C131.018 92.243 131.003 92.2974 130.978 92.3472C130.953 92.397 130.918 92.4412 130.875 92.4773C130.833 92.5133 130.783 92.5405 130.73 92.557C130.677 92.5736 130.621 92.5793 130.565 92.5738C130.482 92.5666 130.403 92.535 130.338 92.483C130.273 92.431 130.225 92.3609 130.2 92.2815C130.175 92.2021 130.173 92.1171 130.197 92.0371C130.22 91.957 130.266 91.8856 130.329 91.8318C130.393 91.778 130.471 91.7443 130.554 91.7348C130.636 91.7253 130.72 91.7406 130.794 91.7786C130.868 91.8166 130.93 91.8757 130.97 91.9484C131.011 92.0212 131.029 92.1043 131.022 92.1873Z" fill="black"/>
<path id="Vector_116" d="M128.788 85.7516C128.792 85.6908 128.809 85.6315 128.837 85.5773C128.865 85.5231 128.903 85.4751 128.95 85.4362C128.997 85.3973 129.051 85.3682 129.11 85.3508C129.168 85.3334 129.23 85.328 129.29 85.335C129.377 85.3459 129.458 85.3818 129.524 85.4384C129.59 85.4949 129.639 85.5696 129.663 85.6532C129.687 85.7368 129.687 85.8258 129.661 85.9091C129.636 85.9924 129.587 86.0664 129.519 86.122C129.452 86.1776 129.371 86.2125 129.284 86.2222C129.198 86.2319 129.11 86.2161 129.032 86.1768C128.955 86.1374 128.89 86.0762 128.847 86.0007C128.803 85.9251 128.783 85.8386 128.788 85.7516Z" fill="black"/>
</g>
<path id="Vector_117" d="M141.253 71.9467C144.029 71.3342 145.043 76.9315 142.468 77.4937C139.892 78.056 138.923 72.4537 141.253 71.9467Z" fill="#263238"/>
<path id="Vector_118" d="M128.452 74.8432C125.656 75.3452 126.865 80.9023 129.456 80.4405C132.046 79.9787 130.796 74.4215 128.452 74.8432Z" fill="#263238"/>
<path id="Vector_119" d="M142.407 68.0762C141.818 68.0963 141.228 68.0863 140.64 68.0461C139.963 68.0461 139.42 68.0812 138.843 67.6696C138.692 67.536 138.59 67.3562 138.552 67.1583C138.513 66.9603 138.542 66.7553 138.632 66.5752C139.064 65.8272 139.902 65.6465 140.721 65.6365C141.543 65.599 142.35 65.8693 142.985 66.3945C143.122 66.5228 143.219 66.6882 143.265 66.8706C143.31 67.053 143.302 67.2447 143.241 67.4225C143.18 67.6003 143.069 67.7566 142.921 67.8726C142.773 67.9886 142.595 68.0593 142.407 68.0762Z" fill="#263238"/>
<path id="Vector_120" d="M125.5 72.1826C126.055 71.9831 126.6 71.7552 127.131 71.4999C127.754 71.2288 128.276 71.0782 128.637 70.4959C128.728 70.3167 128.757 70.1123 128.719 69.915C128.681 69.7177 128.578 69.5388 128.427 69.4065C127.749 68.8694 126.921 69.015 126.142 69.3061C125.362 69.5787 124.711 70.1315 124.315 70.8573C124.239 71.0289 124.213 71.2189 124.242 71.4046C124.271 71.5903 124.353 71.7636 124.478 71.9037C124.604 72.0438 124.767 72.1447 124.948 72.1941C125.129 72.2436 125.321 72.2396 125.5 72.1826Z" fill="#263238"/>
<path id="Vector_121" d="M131.91 90.0689C132.377 90.4203 132.864 90.9223 133.502 90.8921C134.144 90.7964 134.758 90.5654 135.304 90.2144C135.315 90.207 135.329 90.2036 135.342 90.2048C135.356 90.2059 135.368 90.2116 135.378 90.2209C135.388 90.2302 135.395 90.2425 135.397 90.2559C135.399 90.2693 135.396 90.283 135.389 90.2948C135.186 90.667 134.887 90.9774 134.522 91.193C134.157 91.4087 133.74 91.5215 133.316 91.5196C132.513 91.4845 132.041 90.857 131.755 90.1693C131.715 90.0689 131.845 90.0136 131.91 90.0689Z" fill="#263238"/>
<path id="Vector_122" d="M138.05 82.3632C138.05 82.3632 138.888 84.8732 139.114 86.0629C139.139 86.1734 138.853 86.2838 138.452 86.3842C138.452 86.3842 138.421 86.3842 138.401 86.3842C137.401 86.7696 136.314 86.8718 135.259 86.6796C134.204 86.4875 133.223 86.0083 132.423 85.2949C132.317 85.1945 132.448 85.0388 132.573 85.0941C134.385 85.9625 136.198 85.9324 138.095 85.5961C138.12 85.2447 136.514 81.3291 136.71 81.324C137.538 81.324 139.019 81.3993 139.566 81.4295C139.064 79.7929 137.392 75.2348 136.474 72.2629C136.413 72.0772 136.695 71.9617 136.775 72.1224C138.405 75.394 139.817 78.7698 141.002 82.2276C141.087 82.5188 138.552 82.4786 138.05 82.3632Z" fill="#263238"/>
<path id="Vector_123" d="M137.844 86.2537C137.352 87.262 136.609 88.1264 135.686 88.7637C135.172 89.0893 134.571 89.2488 133.964 89.2205C132.633 89.1452 132.367 87.9906 132.402 86.9565C132.425 86.4043 132.513 85.8567 132.664 85.325C134.247 86.1799 136.062 86.5054 137.844 86.2537Z" fill="#263238"/>
<path id="Vector_124" d="M135.686 88.7486C135.172 89.0742 134.571 89.2338 133.964 89.2054C132.633 89.1301 132.367 87.9755 132.402 86.9414C133.783 86.8058 135.304 87.4534 135.686 88.7486Z" fill="#FF9BBC"/>
<path id="Vector_125" d="M96.3839 61.3344C96.3839 61.3344 92.4734 68.9095 93.5527 72.7749C94.632 76.6403 104.597 90.1693 107.845 89.1703C111.093 88.1713 108.296 76.1434 108.296 76.1434C108.296 76.1434 114.451 71.3744 119.366 68.2318C119.36 65.2005 118.806 62.1952 117.729 59.3615C119.704 61.4165 121.177 63.9011 122.031 66.6204C123.861 65.5336 125.795 64.6322 127.804 63.9297C128.668 63.6486 129.561 63.3976 130.475 63.1667C130.052 60.9157 129.48 58.6953 128.763 56.5202C130.043 58.1718 131.173 60.8073 131.941 62.8203C132.493 62.6948 133.05 62.5693 133.597 62.4789C132.538 58.1216 129.842 52.1678 129.687 51.7964C133.556 54.1285 136.643 57.5611 138.552 61.6556C141.87 61.2038 145.374 61.0432 145.374 61.0432C142.207 49.5625 134.029 39.2865 119.772 39.9592C103 40.7473 97.6841 58.242 97.6841 58.242C97.6841 58.242 95.7062 54.8385 94.6721 55.461C93.638 56.0834 95.9673 59.5171 95.9673 59.5171C95.9673 59.5171 92.7846 60.7169 92.8398 61.7611C93.131 63.1064 96.3839 61.3344 96.3839 61.3344Z" fill="#263238"/>
<path id="Vector_126" d="M110.189 83.5177C110.189 83.5177 103.302 76.6102 100.074 79.2005C96.8458 81.7909 102.99 92.4784 107.463 93.3017C108.029 93.4464 108.618 93.4752 109.195 93.3863C109.772 93.2975 110.326 93.0929 110.822 92.7849C111.318 92.4768 111.747 92.0716 112.082 91.5936C112.418 91.1157 112.653 90.5748 112.774 90.0036L110.189 83.5177Z" fill="#FFC4C0"/>
<path id="Vector_127" d="M101.906 82.2226C101.836 82.2226 101.841 82.323 101.906 82.3381C105.053 83.0107 107.082 85.4655 108.663 88.101C107.599 87.1673 106.303 86.7807 105.028 88.101C104.958 88.1663 105.053 88.2767 105.134 88.2416C106.293 87.7747 107.197 87.8299 108.181 88.6482C108.852 89.2803 109.455 89.9821 109.978 90.7415C110.159 90.9825 110.611 90.7415 110.455 90.4705L110.42 90.4102C109.843 86.6251 106.002 81.8913 101.906 82.2226Z" fill="#263238"/>
<path id="Vector_128" d="M175.263 165.625C179.781 163.501 184.259 153.145 185.685 122.609C185.906 117.975 156.067 104.752 154.962 109.597C153.572 115.691 152.874 132.031 152.799 133.823C152.151 148.918 170.073 168.07 175.263 165.625Z" fill="#FFC4C0"/>
<path id="Vector_129" d="M154.35 113.106C153.998 119.958 152.909 128.637 153.346 135.414C153.742 139.512 154.628 143.547 155.986 147.432C156.522 149.001 157.147 150.538 157.859 152.036C154.631 147.156 152.864 141.318 152.362 135.5C152.051 131.323 152.593 127.121 152.989 122.99C153.366 119.682 153.813 116.389 154.355 113.106H154.35Z" fill="#263238"/>
<path id="Vector_130" d="M185.529 123.216C187.703 114.341 189.982 101.66 187.949 98.0105C185.82 94.1752 177.778 81.0077 174.922 78.5479C172.066 76.0881 159.541 64.6225 156.207 65.1144C153.542 65.506 153.848 72.2328 159.787 77.7548C165.002 82.6091 167.292 86.1081 168.752 87.5689C170.213 89.0297 172.266 96.6049 170.058 98.7183C168.757 99.9633 163.627 99.9884 161.373 97.6541C159.119 95.3198 160.595 89.6221 158.471 85.7968C156.348 81.9716 150.68 80.0941 149.767 81.4646C148.853 82.835 150.404 84.2607 151.222 90.4704C151.75 94.4613 148.758 102.363 150.66 109.632C151.619 113.281 153.341 123.276 153.341 123.276L185.529 123.216Z" fill="#FFC4C0"/>
<path id="Vector_131" d="M156.458 82.328C155.575 81.7206 154.636 81.0077 154.204 79.9937C154.048 79.6667 153.974 79.3067 153.988 78.9446C154.002 78.5826 154.104 78.2293 154.285 77.9154C154.395 77.7146 154.586 77.4134 154.817 77.3481C154.892 77.3481 154.817 77.2277 154.782 77.2728C154.658 77.3602 154.529 77.439 154.395 77.5088C154.292 77.5832 154.198 77.6691 154.114 77.7648C153.942 77.9486 153.808 78.1655 153.722 78.4023C153.539 78.9256 153.539 79.4955 153.722 80.0188C154.134 81.2637 155.228 81.9866 156.423 82.4083C156.433 82.41 156.443 82.4083 156.452 82.4035C156.461 82.3987 156.468 82.3911 156.472 82.3819C156.476 82.3726 156.477 82.3623 156.474 82.3525C156.472 82.3428 156.466 82.3341 156.458 82.328Z" fill="#263238"/>
<path id="Vector_132" d="M148.994 77.1674L150.454 75.7417L162.748 73.9446L166.262 97.9251L136.644 102.252L134.742 89.2004C134.957 89.3555 135.205 89.4578 135.467 89.4988C135.728 89.5398 135.996 89.5184 136.248 89.4363C136.647 89.3082 136.982 89.0337 137.187 88.6682C137.503 89.0073 137.91 89.2486 138.359 89.3633C138.809 89.4781 139.281 89.4616 139.722 89.3158C140.102 89.1922 140.446 88.9754 140.721 88.6852C140.996 88.395 141.195 88.0406 141.298 87.6542C141.706 88.0778 142.226 88.3775 142.797 88.5187C143.368 88.6599 143.967 88.6369 144.526 88.4524C144.908 88.3305 145.262 88.1342 145.568 87.8749C145.874 87.6156 146.126 87.2984 146.308 86.9415C146.491 86.5846 146.602 86.1951 146.634 85.7953C146.665 85.3955 146.618 84.9934 146.494 84.6121C146.441 84.4378 146.37 84.2696 146.283 84.1101C146.703 84.1992 147.14 84.1749 147.548 84.0398C148.071 83.8736 148.519 83.5312 148.818 83.0709C149.129 82.6086 149.263 82.0498 149.196 81.4967C149.128 80.9436 148.864 80.4333 148.451 80.0589L148.537 80.0338C148.841 79.936 149.11 79.753 149.313 79.5065C149.516 79.26 149.644 78.9604 149.681 78.6433C149.71 78.4084 149.686 78.1699 149.611 77.9455C149.492 77.6276 149.276 77.3553 148.994 77.1674Z" fill="#219653"/>
<path id="Vector_133" opacity="0.85" d="M148.994 77.1674L150.454 75.7417L162.748 73.9446L166.262 97.9251L136.644 102.252L134.742 89.2004C134.957 89.3555 135.205 89.4578 135.467 89.4988C135.728 89.5398 135.996 89.5184 136.248 89.4363C136.647 89.3082 136.982 89.0337 137.187 88.6682C137.503 89.0073 137.91 89.2486 138.359 89.3633C138.809 89.4781 139.281 89.4616 139.722 89.3158C140.102 89.1922 140.446 88.9754 140.721 88.6852C140.996 88.395 141.195 88.0406 141.298 87.6542C141.706 88.0778 142.226 88.3775 142.797 88.5187C143.368 88.6599 143.967 88.6369 144.526 88.4524C144.908 88.3305 145.262 88.1342 145.568 87.8749C145.874 87.6156 146.126 87.2984 146.308 86.9415C146.491 86.5846 146.602 86.1951 146.634 85.7953C146.665 85.3955 146.618 84.9934 146.494 84.6121C146.441 84.4378 146.37 84.2696 146.283 84.1101C146.703 84.1992 147.14 84.1749 147.548 84.0398C148.071 83.8736 148.519 83.5312 148.818 83.0709C149.129 82.6086 149.263 82.0498 149.196 81.4967C149.128 80.9436 148.864 80.4333 148.451 80.0589L148.537 80.0338C148.841 79.936 149.11 79.753 149.313 79.5065C149.516 79.26 149.644 78.9604 149.681 78.6433C149.71 78.4084 149.686 78.1699 149.611 77.9455C149.492 77.6276 149.276 77.3553 148.994 77.1674Z" fill="black"/>
<path id="Vector_134" d="M150.218 76.9867L162.924 75.1293L166.257 97.9252L136.639 102.252L134.877 90.1692C135.11 90.343 135.381 90.4579 135.668 90.5042C135.955 90.5506 136.248 90.5269 136.524 90.4353C136.952 90.2885 137.309 89.9879 137.528 89.592C137.842 89.9384 138.245 90.1932 138.692 90.3293C139.14 90.4654 139.616 90.4777 140.07 90.365C140.524 90.2522 140.939 90.0186 141.271 89.6889C141.603 89.3593 141.84 88.9458 141.956 88.4926C142.475 89.0476 143.168 89.4085 143.921 89.5154C144.673 89.6223 145.44 89.4688 146.093 89.0803C146.746 88.6918 147.247 88.0917 147.513 87.3795C147.778 86.6672 147.792 85.8856 147.553 85.1643C147.494 84.982 147.418 84.8055 147.327 84.6372C147.843 84.7479 148.381 84.6986 148.869 84.4959C149.357 84.2933 149.772 83.9468 150.058 83.5027C150.268 83.1783 150.401 82.8107 150.449 82.4274C150.497 82.044 150.458 81.6548 150.334 81.2889C150.203 80.8792 149.969 80.5095 149.656 80.2146H149.747C150.049 80.119 150.32 79.9459 150.535 79.7126C150.783 79.4321 150.937 79.0811 150.976 78.7086C151.007 78.4514 150.98 78.1907 150.896 77.9456C150.787 77.5575 150.548 77.2189 150.218 76.9867Z" fill="#219653"/>
<path id="Vector_135" opacity="0.79" d="M150.218 76.9867L162.924 75.1293L166.257 97.9252L136.639 102.252L134.877 90.1692C135.11 90.343 135.381 90.4579 135.668 90.5042C135.955 90.5506 136.248 90.5269 136.524 90.4353C136.952 90.2885 137.309 89.9879 137.528 89.592C137.842 89.9384 138.245 90.1932 138.692 90.3293C139.14 90.4654 139.616 90.4777 140.07 90.365C140.524 90.2522 140.939 90.0186 141.271 89.6889C141.603 89.3593 141.84 88.9458 141.956 88.4926C142.475 89.0476 143.168 89.4085 143.921 89.5154C144.673 89.6223 145.44 89.4688 146.093 89.0803C146.746 88.6918 147.247 88.0917 147.513 87.3795C147.778 86.6672 147.792 85.8856 147.553 85.1643C147.494 84.982 147.418 84.8055 147.327 84.6372C147.843 84.7479 148.381 84.6986 148.869 84.4959C149.357 84.2933 149.772 83.9468 150.058 83.5027C150.268 83.1783 150.401 82.8107 150.449 82.4274C150.497 82.044 150.458 81.6548 150.334 81.2889C150.203 80.8792 149.969 80.5095 149.656 80.2146H149.747C150.049 80.119 150.32 79.9459 150.535 79.7126C150.783 79.4321 150.937 79.0811 150.976 78.7086C151.007 78.4514 150.98 78.1907 150.896 77.9456C150.787 77.5575 150.548 77.2189 150.218 76.9867Z" fill="black"/>
<path id="Vector_136" d="M148.749 97.9084L147.559 89.4896L136.421 91.0645L137.612 99.4834L148.749 97.9084Z" fill="#219653"/>
<path id="Vector_137" opacity="0.65" d="M147.314 96.9354L146.45 90.8225L137.857 92.0377L138.721 98.1505L147.314 96.9354Z" fill="black"/>
<path id="Vector_138" opacity="0.6" d="M148.271 89.838L147.166 91.1783L148.06 97.2876L149.501 98.2565L148.271 89.838Z" fill="black"/>
<path id="Vector_139" opacity="0.75" d="M138.371 99.8829L139.471 98.5426L138.577 92.4383L137.141 91.4694L138.371 99.8829Z" fill="black"/>
<path id="Vector_140" opacity="0.75" d="M138.371 99.8829L139.471 98.5426L148.06 97.2876L149.501 98.2565L138.371 99.8829Z" fill="black"/>
<path id="Vector_141" opacity="0.6" d="M148.271 89.838L147.166 91.1783L138.577 92.4383L137.141 91.4695L148.271 89.838Z" fill="black"/>
<path id="Vector_142" d="M150.981 78.6634L160.519 77.2678L161.749 85.6864L150.6 87.3128L150.043 83.5027C150.252 83.1783 150.386 82.8107 150.434 82.4273C150.482 82.044 150.442 81.6548 150.319 81.2888C150.188 80.8791 149.954 80.5095 149.641 80.2146H149.731C150.034 80.119 150.305 79.9459 150.52 79.7126C150.784 79.4226 150.946 79.0541 150.981 78.6634Z" fill="#219653"/>
<path id="Vector_143" opacity="0.65" d="M159.51 84.4307L158.646 78.3179L150.053 79.533L150.918 85.6459L159.51 84.4307Z" fill="black"/>
<path id="Vector_144" opacity="0.6" d="M160.519 77.2678L159.415 78.6082L160.309 84.7175L161.749 85.6864L160.519 77.2678Z" fill="black"/>
<path id="Vector_145" opacity="0.75" d="M150.54 79.6674L150.826 79.8682L151.724 85.9776L150.62 87.3129L150.063 83.5027C150.273 83.1783 150.406 82.8107 150.454 82.4274C150.502 82.044 150.463 81.6549 150.339 81.2889C150.208 80.8792 149.974 80.5095 149.661 80.2146H149.752C150.059 80.1063 150.331 79.9173 150.54 79.6674Z" fill="black"/>
<path id="Vector_146" opacity="0.75" d="M150.62 87.3129L151.725 85.9725L160.309 84.7175L161.749 85.6864L150.62 87.3129Z" fill="black"/>
<path id="Vector_147" opacity="0.6" d="M150.982 78.6634L160.52 77.2678L159.415 78.6082L150.826 79.8682L150.54 79.6674C150.788 79.3869 150.943 79.0359 150.982 78.6634Z" fill="black"/>
<path id="Vector_148" d="M163.281 96.2271L162.051 87.8127L150.919 89.4405L152.15 97.8549L163.281 96.2271Z" fill="#219653"/>
<path id="Vector_149" opacity="0.65" d="M161.842 95.2656L160.948 89.156L152.36 90.412L153.254 96.5216L161.842 95.2656Z" fill="black"/>
<path id="Vector_150" opacity="0.6" d="M162.061 87.8199L160.961 89.1602L161.855 95.2696L163.296 96.2384L162.061 87.8199Z" fill="black"/>
<path id="Vector_151" opacity="0.75" d="M152.161 97.8649L153.266 96.5245L152.372 90.4202L150.931 89.4514L152.161 97.8649Z" fill="black"/>
<path id="Vector_152" opacity="0.75" d="M152.161 97.8649L153.266 96.5245L161.855 95.2695L163.296 96.2384L152.161 97.8649Z" fill="black"/>
<path id="Vector_153" opacity="0.6" d="M162.061 87.8199L160.961 89.1602L152.372 90.4202L150.931 89.4514L162.061 87.8199Z" fill="black"/>
<path id="Vector_154" d="M186.859 95.4603C185.855 90.1994 183.11 82.4636 177.367 77.1725C173.481 73.5932 154.671 75.0089 153.933 78.2016C153.195 81.3943 155.886 82.4786 160.058 83.588C161.564 83.9947 170.359 84.2858 171.026 86.4193C171.99 89.4815 172.743 95.0989 172.743 95.0989L182.999 92.7044L186.859 95.4603Z" fill="#FFC4C0"/>
<path id="Vector_155" d="M154.792 77.1825C158.02 74.7328 162.984 74.7127 167.783 75.044C167.859 75.044 167.854 75.1645 167.783 75.1595C166.559 75.0741 158.351 75.5109 154.817 77.2528C154.777 77.2729 154.762 77.2076 154.792 77.1825Z" fill="#263238"/>
<path id="Vector_156" d="M186.965 94.2003C185.653 87.6499 182.291 81.6866 177.367 77.1725C173.481 73.5932 157.111 78.4626 156.373 81.6604C155.635 84.8581 159.41 86.6302 164.274 86.841C165.846 86.9113 171.779 85.4906 172.447 87.6191C173.406 90.6863 174.741 95.0788 174.741 95.0788L183.898 94.1602L186.965 94.2003Z" fill="#FFC4C0"/>
<path id="Vector_157" d="M174.48 93.6431C174.314 92.8098 174.259 92.5236 174.079 91.6903C173.898 90.857 173.702 90.0387 173.466 89.2255C173.31 88.501 173.032 87.8084 172.643 87.1773C172.2 86.6225 171.589 86.2276 170.901 86.0529C169.365 85.6011 167.648 86.0127 166.107 86.2336C164.38 86.4796 160.951 86.6302 158.813 85.5057C158.211 85.2304 157.676 84.8299 157.241 84.331C156.9 83.9781 156.653 83.5447 156.524 83.071C156.207 81.063 158.16 79.6523 159.922 78.819C163.205 77.2578 167.015 76.6956 170.605 76.4195C171.488 76.3492 172.372 76.304 173.255 76.2588C174.269 76.1404 175.297 76.2431 176.267 76.56C177.818 77.1624 179.736 79.7477 180.333 80.5359C180.379 80.5961 180.464 80.5359 180.419 80.4556C179.701 79.4817 178.11 76.6153 175.559 75.7468C174.626 75.4305 173.582 75.5611 172.608 75.5862C171.634 75.6113 170.565 75.6815 169.551 75.7669C167.563 75.9198 165.59 76.2303 163.652 76.6956C161.825 77.1474 159.842 77.7297 158.291 78.8291C156.945 79.7829 155.971 81.5098 156.242 83.1814C156.478 84.587 157.824 85.4404 158.461 85.7968C159.085 86.1362 159.75 86.3927 160.439 86.5599C162.021 86.824 163.62 86.975 165.223 87.0117C166.795 87.0117 168.381 86.58 169.942 86.7155C170.317 86.7306 170.685 86.8211 171.024 86.9815C171.363 87.1419 171.666 87.369 171.915 87.6492C172.332 88.2572 172.657 88.9238 172.879 89.6271C173.447 90.9215 173.894 92.266 174.214 93.6431C174.304 94.0045 174.55 93.9945 174.48 93.6431Z" fill="#263238"/>
<path id="Vector_158" d="M188.516 100.787C188.33 98.402 189.907 91.1833 189.319 88.0307C188.732 84.8781 184.947 73.2619 181.413 72.293C176.965 71.0782 178.351 80.5107 179.329 84.5569C180.308 88.603 177.793 93.8238 177.793 93.8238L185.63 93.4674L188.516 100.787Z" fill="#FFC4C0"/>
<path id="Vector_159" d="M178.3 78.0811C178.674 79.4152 178.981 80.7673 179.219 82.1322C179.533 83.4113 179.753 84.7116 179.877 86.0227C179.901 87.3233 179.711 88.619 179.314 89.858C179.134 90.4754 178.918 91.0678 178.687 91.6652C178.456 92.2626 178.115 92.9503 177.874 93.6029C177.849 93.6732 177.738 93.638 177.763 93.5678C178.157 92.3524 178.474 91.1134 178.712 89.858C178.983 88.5645 179.094 87.2428 179.043 85.9223C178.933 83.2968 178.265 80.7316 178.135 78.1062C178.12 77.9957 178.275 77.9907 178.3 78.0811Z" fill="#263238"/>
<path id="Vector_160" d="M177.382 94.7023C176.262 97.7796 173.717 100.139 171.207 102.137C169.48 103.462 167.502 104.366 165.785 105.681C164.065 106.961 162.573 108.522 161.373 110.299C160.764 111.189 160.212 112.116 159.721 113.076C161.364 108.998 164.367 105.614 168.22 103.497C170.09 102.444 171.827 101.171 173.396 99.7073C174.952 98.2464 176.488 96.6702 177.382 94.6873V94.7023Z" fill="#263238"/>
<path id="Vector_161" d="M146.629 114.516L171.036 130.545L170.379 131.549L152.051 159.445L127.649 143.416L146.629 114.516Z" fill="#219653"/>
<path id="Vector_162" opacity="0.85" d="M146.629 114.516L171.036 130.545L170.379 131.549L152.051 159.445L127.649 143.416L146.629 114.516Z" fill="black"/>
<path id="Vector_163" d="M145.972 115.515L170.379 131.549L152.051 159.445L127.649 143.416L145.972 115.515Z" fill="#219653"/>
<path id="Vector_164" opacity="0.79" d="M145.972 115.515L170.379 131.549L152.051 159.445L127.649 143.416L145.972 115.515Z" fill="black"/>
<path id="Vector_165" d="M151.552 131.471L156.22 124.364L146.818 118.187L142.149 125.295L151.552 131.471Z" fill="#219653"/>
<path id="Vector_166" opacity="0.65" d="M151.114 129.797L154.504 124.636L147.25 119.871L143.86 125.031L151.114 129.797Z" fill="black"/>
<path id="Vector_167" opacity="0.75" d="M156.217 124.365L154.506 124.637L151.112 129.797L151.549 131.474L156.217 124.365Z" fill="black"/>
<path id="Vector_168" opacity="0.6" d="M142.146 125.299L143.858 125.028L147.247 119.868L146.815 118.191L142.146 125.299Z" fill="black"/>
<path id="Vector_169" opacity="0.6" d="M142.146 125.299L143.858 125.028L151.112 129.797L151.549 131.474L142.146 125.299Z" fill="black"/>
<path id="Vector_170" opacity="0.75" d="M156.217 124.366L154.506 124.637L147.247 119.868L146.815 118.191L156.217 124.366Z" fill="black"/>
<path id="Vector_171" d="M145.692 140.384L150.361 133.276L140.958 127.1L136.289 134.207L145.692 140.384Z" fill="#219653"/>
<path id="Vector_172" opacity="0.65" d="M145.257 138.705L148.647 133.544L141.393 128.779L138.003 133.94L145.257 138.705Z" fill="black"/>
<path id="Vector_173" opacity="0.75" d="M150.364 133.281L148.647 133.547L145.259 138.708L145.695 140.389L150.364 133.281Z" fill="black"/>
<path id="Vector_174" opacity="0.6" d="M136.293 134.21L138.005 133.944L141.393 128.783L140.962 127.101L136.293 134.21Z" fill="black"/>
<path id="Vector_175" opacity="0.6" d="M136.293 134.21L138.005 133.944L145.259 138.708L145.695 140.389L136.293 134.21Z" fill="black"/>
<path id="Vector_176" opacity="0.75" d="M150.364 133.281L148.647 133.547L141.393 128.783L140.962 127.101L150.364 133.281Z" fill="black"/>
<path id="Vector_177" d="M139.129 149.759L143.806 142.616L134.356 136.429L129.679 143.572L139.129 149.759Z" fill="#219653"/>
<path id="Vector_178" opacity="0.65" d="M139.407 147.62L142.797 142.459L135.543 137.694L132.153 142.855L139.407 147.62Z" fill="black"/>
<path id="Vector_179" opacity="0.75" d="M144.511 142.192L142.794 142.463L139.405 147.618L139.837 149.3L144.511 142.192Z" fill="black"/>
<path id="Vector_180" opacity="0.6" d="M130.435 143.125L132.152 142.854L135.54 137.694L135.103 136.017L130.435 143.125Z" fill="black"/>
<path id="Vector_181" opacity="0.6" d="M130.435 143.125L132.152 142.854L139.405 147.618L139.837 149.3L130.435 143.125Z" fill="black"/>
<path id="Vector_182" opacity="0.75" d="M144.511 142.192L142.794 142.463L135.54 137.694L135.103 136.017L144.511 142.192Z" fill="black"/>
<path id="Vector_183" d="M163.199 139.125L167.867 132.018L158.465 125.841L153.796 132.949L163.199 139.125Z" fill="#219653"/>
<path id="Vector_184" opacity="0.65" d="M162.761 137.45L166.151 132.29L158.897 127.524L155.507 132.685L162.761 137.45Z" fill="black"/>
<path id="Vector_185" opacity="0.75" d="M167.869 132.021L166.157 132.287L162.763 137.448L163.2 139.129L167.869 132.021Z" fill="black"/>
<path id="Vector_186" opacity="0.6" d="M153.798 132.95L155.51 132.684L158.898 127.523L158.466 125.841L153.798 132.95Z" fill="black"/>
<path id="Vector_187" opacity="0.6" d="M153.798 132.95L155.51 132.684L162.763 137.448L163.2 139.129L153.798 132.95Z" fill="black"/>
<path id="Vector_188" opacity="0.75" d="M167.869 132.021L166.157 132.287L158.898 127.523L158.466 125.841L167.869 132.021Z" fill="black"/>
<path id="Vector_189" d="M157.348 148.04L162.017 140.933L152.615 134.756L147.946 141.864L157.348 148.04Z" fill="#219653"/>
<path id="Vector_190" opacity="0.65" d="M156.914 146.361L160.304 141.201L153.049 136.435L149.659 141.596L156.914 146.361Z" fill="black"/>
<path id="Vector_191" opacity="0.75" d="M162.015 140.931L160.299 141.203L156.91 146.363L157.347 148.04L162.015 140.931Z" fill="black"/>
<path id="Vector_192" opacity="0.6" d="M147.939 141.865L149.656 141.594L153.045 136.434L152.613 134.757L147.939 141.865Z" fill="black"/>
<path id="Vector_193" opacity="0.6" d="M147.939 141.865L149.656 141.594L156.91 146.363L157.347 148.04L147.939 141.865Z" fill="black"/>
<path id="Vector_194" opacity="0.75" d="M162.015 140.931L160.299 141.203L153.045 136.434L152.613 134.757L162.015 140.931Z" fill="black"/>
<path id="Vector_195" d="M151.489 156.953L156.158 149.845L146.755 143.669L142.086 150.776L151.489 156.953Z" fill="#219653"/>
<path id="Vector_196" opacity="0.65" d="M151.054 155.274L154.444 150.113L147.19 145.348L143.8 150.508L151.054 155.274Z" fill="black"/>
<path id="Vector_197" opacity="0.75" d="M156.157 149.847L154.445 150.113L151.057 155.274L151.488 156.955L156.157 149.847Z" fill="black"/>
<path id="Vector_198" opacity="0.6" d="M142.086 150.776L143.803 150.51L147.191 145.349L146.755 143.667L142.086 150.776Z" fill="black"/>
<path id="Vector_199" opacity="0.6" d="M142.086 150.776L143.803 150.51L151.057 155.274L151.489 156.955L142.086 150.776Z" fill="black"/>
<path id="Vector_200" opacity="0.75" d="M156.157 149.847L154.445 150.113L147.191 145.349L146.755 143.667L156.157 149.847Z" fill="black"/>
<path id="Vector_201" d="M64.0652 184.339C68.3473 186.9 81.0931 187.196 107.237 171.338C111.203 168.928 106.183 135.932 101.55 137.704C95.7163 139.953 81.7708 148.497 80.2397 149.43C67.3433 157.337 59.1356 181.393 64.0652 184.339Z" fill="#FFC4C0"/>
<path id="Vector_202" d="M93.874 143.07C93.874 143.07 103.703 134.034 110.34 130.932C119.23 126.75 128.622 126.8 132.558 127.056C140.771 127.593 160.264 134.586 159.229 140.54C158.296 145.941 138.733 137.799 138.733 137.799C138.733 137.799 160.048 142.819 157.728 149.104C155.409 155.389 133.241 144.651 133.241 144.651C133.241 144.651 155.023 150.294 151.604 156.403C149.024 161.022 128.397 152.422 128.397 152.422C128.397 152.422 147.086 157.402 144.631 162.267C141.925 167.638 122.383 160.896 122.383 160.896C114.069 172.211 105.48 174.199 99.2053 174.887C97.6842 175.052 93.874 143.07 93.874 143.07Z" fill="#FFC4C0"/>
<path id="Vector_203" d="M131.474 135.59C133.984 136.092 136.559 136.594 139.029 137.297C141.499 138 143.954 138.828 146.343 139.772C152.216 142.096 155.53 144.471 155.309 144.345C150.093 141.408 141.283 138.688 138.808 137.97C136.333 137.252 133.909 136.408 131.444 135.686C131.383 135.666 131.414 135.58 131.474 135.59Z" fill="#263238"/>
<path id="Vector_204" d="M128.708 144.471C131.905 145.244 135.108 145.901 138.271 146.815C141.433 147.729 144.325 148.868 147.402 149.998C147.638 150.083 147.513 150.183 147.272 150.103C144.154 149.099 141.192 148.416 138.06 147.447C134.928 146.479 131.835 145.394 128.683 144.546C128.637 144.531 128.663 144.461 128.708 144.471Z" fill="#263238"/>
<path id="Vector_205" d="M124.968 151.664C129.913 152.598 134.682 154.445 139.31 156.368C139.541 156.463 139.37 156.574 139.129 156.488C134.385 154.837 130.681 153.507 124.933 151.835C124.842 151.81 124.863 151.644 124.968 151.664Z" fill="#263238"/>
<path id="Vector_206" d="M122.383 160.896C127.568 162.482 132.925 163.973 138.311 164.295C140.359 164.345 144.38 164.295 144.189 161.483C143.888 160.329 142.754 159.41 141.805 158.672C140.715 157.884 139.574 157.168 138.391 156.529L134.446 154.315L138.788 155.61C141.403 156.348 149.807 158.677 151.388 155.861C152.292 153.185 146.458 150.088 144.551 148.888L146.996 149.716C149.25 150.444 151.614 151.077 154.024 151.067C154.827 151.082 155.623 150.91 156.348 150.565C154.937 151.398 153.185 151.298 151.604 151.172C149.989 151.007 148.392 150.693 146.835 150.234L147.061 149.732C149.069 150.936 151.328 152.242 152.242 154.551C152.864 156.303 151.238 157.683 149.661 157.924C145.836 158.537 142.156 157.533 138.512 156.559L138.908 155.645C140.127 156.314 141.301 157.062 142.422 157.884C144.159 159.129 146.348 161.463 144.466 163.577C142.874 165.228 140.359 165.148 138.301 165.058C132.779 164.586 127.528 162.859 122.413 160.886L122.383 160.896Z" fill="#263238"/>
<path id="Vector_207" d="M98.2866 139.169C92.4082 142.683 84.597 146.649 79.2106 150.786C76.0334 153.404 73.1803 156.392 70.7117 159.686C69.7097 161.007 68.7829 162.383 67.9357 163.808C70.1846 158.411 74.04 153.682 78.5881 150.023C81.8812 147.427 85.6663 145.535 89.3209 143.557C92.2726 142.026 95.2595 140.545 98.2816 139.169H98.2866Z" fill="#263238"/>
</g>
</g>
</svg>
