<svg width="258" height="258" viewBox="0 0 258 258" fill="none" xmlns="http://www.w3.org/2000/svg">
<path d="M237.375 117.679H20.6245V150.636H237.375V117.679Z" fill="#EBEBEB"/>
<path d="M37.8331 24.1901V194.615H120.811V24.1901H37.8331ZM118.231 192.251H40.4131V26.5533H118.231V192.251Z" fill="#C7C7C7"/>
<path d="M118.231 26.5533H40.4131V192.251H118.231V26.5533Z" fill="white"/>
<g opacity="0.5">
<path d="M118.231 26.5533V41.12L40.4131 112.431V97.1525L117.452 26.5533H118.231Z" fill="#EBEBEB"/>
<path d="M118.231 151.08V166.353L89.9698 192.251H73.303L118.231 151.08Z" fill="#EBEBEB"/>
<path d="M118.231 72.6321V74.1285L40.4131 145.44V143.943L118.231 72.6321Z" fill="#EBEBEB"/>
<path d="M118.231 131.477V132.968L53.5505 192.251H51.9199L118.231 131.477Z" fill="#EBEBEB"/>
<path d="M66.0067 26.5533L40.4131 50.0055V48.5143L64.3761 26.5533H66.0067Z" fill="#EBEBEB"/>
<path d="M110.744 26.5533L40.4131 91.0017V85.656L104.908 26.5533H110.744Z" fill="#EBEBEB"/>
<path d="M118.231 110.537V115.883L40.4131 187.2V181.844L118.231 110.537Z" fill="#EBEBEB"/>
<path d="M118.231 177.024V182.375L107.457 192.251H101.616L118.231 177.024Z" fill="#EBEBEB"/>
</g>
<path d="M220.167 194.615V24.1901H137.189V194.615H220.167ZM139.769 26.5533H217.587V192.251H139.769V26.5533Z" fill="#C7C7C7"/>
<path d="M217.587 26.5533H139.769V192.251H217.587V26.5533Z" fill="white"/>
<g opacity="0.5">
<path d="M139.769 192.251V177.679L217.587 106.373V121.652L140.548 192.251H139.769Z" fill="#EBEBEB"/>
<path d="M139.769 67.725V52.4514L168.03 26.5533H184.697L139.769 67.725Z" fill="#EBEBEB"/>
<path d="M139.769 146.172V144.676L217.587 73.3649V74.8561L139.769 146.172Z" fill="#EBEBEB"/>
<path d="M139.769 87.3278V85.8314L204.45 26.5533H206.08L139.769 87.3278Z" fill="#EBEBEB"/>
<path d="M191.993 192.251L217.587 168.794V170.29L193.624 192.251H191.993Z" fill="#EBEBEB"/>
<path d="M147.256 192.251L217.587 127.803V133.149L153.092 192.251H147.256Z" fill="#EBEBEB"/>
<path d="M139.769 108.267V102.921L217.587 31.605V36.9559L139.769 108.267Z" fill="#EBEBEB"/>
<path d="M139.769 41.7805V36.4244L150.543 26.5533H156.384L139.769 41.7805Z" fill="#EBEBEB"/>
</g>
<path d="M198.325 183.619C198.325 183.619 187.272 180.646 181.384 174.769C175.497 168.892 172.483 158.665 172.483 158.665C172.483 158.665 179 160.13 184.862 162.447C185.817 163.556 187.628 165.832 188.433 167.948C188.433 167.948 188.706 165.755 188.613 164.124C190.172 164.919 191.529 165.786 192.489 166.694C197.38 171.333 198.325 183.613 198.325 183.613V183.619Z" fill="#219653"/>
<path d="M179.253 163.851C177.772 162.736 176.266 161.663 174.795 160.538C174.707 160.471 174.795 160.331 174.893 160.393C177.7 162.225 180.461 164.171 183.123 166.204C184.052 166.91 184.965 167.648 185.863 168.391C185.801 168.278 185.745 168.164 185.683 168.051C185.368 167.478 185.038 166.916 184.707 166.348C184.042 165.218 183.309 164.098 182.468 163.092C182.437 163.056 182.494 163.004 182.525 163.04C183.35 164.078 184.181 165.104 184.929 166.198C185.285 166.72 185.616 167.256 185.925 167.803C186.085 168.087 186.245 168.376 186.395 168.665C186.446 168.763 186.498 168.861 186.549 168.959C187.948 170.151 189.305 171.384 190.595 172.69C191.39 173.495 192.158 174.325 192.896 175.177C192.52 173.809 192.195 172.432 191.751 171.08C191.735 171.033 191.813 171.018 191.823 171.064C192.251 172.478 192.731 173.897 193.046 175.347C193.866 176.302 194.64 177.292 195.373 178.319C195.363 178.257 195.352 178.195 195.342 178.139C195.239 177.607 195.125 177.076 195.007 176.549C194.775 175.528 194.517 174.516 194.217 173.515C193.598 171.462 192.772 169.439 191.446 167.736C191.415 167.7 191.472 167.648 191.503 167.684C193.577 170.352 194.733 173.495 195.42 176.776C195.518 177.256 195.616 177.736 195.703 178.221C195.75 178.474 195.807 178.737 195.837 179C196.157 179.47 196.467 179.945 196.766 180.425C198.588 183.381 199.971 186.591 201.116 189.867C202.406 193.557 203.371 197.349 204.248 201.152C204.264 201.224 204.155 201.25 204.135 201.178C202.215 194.563 200.249 187.855 196.746 181.874C196.008 180.61 195.203 179.393 194.341 178.211C192.509 178.035 190.672 177.561 188.959 176.916C187.065 176.198 185.285 175.239 183.629 174.073C182.674 173.402 181.807 172.623 180.925 171.859C180.884 171.823 180.935 171.766 180.977 171.802C182.432 173.139 184.207 174.207 185.966 175.099C187.731 175.992 189.599 176.714 191.519 177.21C192.334 177.421 193.165 177.587 193.995 177.736C193.015 176.426 191.962 175.166 190.853 173.959C190.492 173.567 190.115 173.195 189.744 172.814C188.5 171.828 187.112 171.033 185.714 170.29C183.923 169.336 182.158 168.33 180.388 167.334C179.387 166.776 178.397 166.204 177.385 165.657C177.344 165.631 177.385 165.569 177.427 165.595C179.222 166.554 181.054 167.452 182.87 168.376C184.578 169.243 186.312 170.115 187.943 171.121C188.015 171.162 188.077 171.209 188.149 171.255C186.689 169.878 185.177 168.562 183.624 167.292C182.189 166.116 180.734 164.965 179.253 163.851Z" fill="#263238"/>
<path d="M179.656 169.625C180.548 170.058 181.456 170.445 182.339 170.904C183.247 171.374 184.098 171.916 184.955 172.468C184.991 172.494 184.955 172.545 184.919 172.525C184.047 172.065 183.159 171.632 182.298 171.152C181.415 170.662 180.543 170.141 179.635 169.702C179.594 169.681 179.614 169.609 179.661 169.63L179.656 169.625Z" fill="#263238"/>
<path d="M233.134 126.296C233.134 126.296 230.198 130.047 230.301 135.734C230.317 136.735 230.549 138.118 230.755 139.753C226.72 142.194 223.815 146.358 223.815 146.358C226.101 144.815 229.31 144.067 231.07 144.207C231.07 145.285 231.003 146.415 230.822 147.561C230.048 147.561 228.562 147.741 226.147 148.747C226.147 148.747 228.562 148.556 230.456 149.367C228.81 155.796 223.252 162.607 207.091 166.235C207.091 166.235 203.35 155.331 208.748 143.128C213.118 133.252 233.139 126.296 233.139 126.296H233.134Z" fill="#219653"/>
<path d="M202.891 193.583C203.03 190.868 203.242 188.154 203.515 185.45C204.062 180.038 204.857 174.64 205.951 169.31C206.467 166.797 207.112 164.325 207.917 161.91C207.834 161.482 207.819 161.038 207.788 160.61C207.747 160.089 207.716 159.568 207.695 159.041C207.649 157.994 207.643 156.952 207.68 155.904C207.747 153.84 207.948 151.761 208.356 149.738C208.593 148.562 208.877 147.395 209.155 146.229C209.166 146.183 209.238 146.198 209.228 146.245C208.758 148.262 208.536 150.352 208.35 152.411C208.165 154.454 208.098 156.508 208.129 158.562C208.139 159.124 208.159 159.686 208.185 160.244C208.196 160.481 208.221 160.724 208.242 160.961C208.939 158.98 209.744 157.029 210.683 155.125C212.169 152.117 213.908 149.237 215.817 146.477C215.781 146.178 215.858 145.853 215.899 145.558C215.956 145.192 216.018 144.821 216.08 144.454C216.209 143.701 216.354 142.947 216.519 142.199C216.844 140.698 217.303 139.243 217.685 137.762C217.695 137.715 217.773 137.731 217.757 137.782C217.406 139.248 217.2 140.76 216.947 142.251C216.823 142.989 216.704 143.721 216.581 144.459C216.519 144.826 216.462 145.197 216.405 145.564C216.405 145.589 216.4 145.62 216.395 145.646C217.009 144.779 217.638 143.923 218.283 143.076C221.204 139.258 224.434 135.708 227.695 132.179C228.098 131.745 228.505 131.322 228.913 130.894C228.949 130.858 229.001 130.909 228.97 130.945C225.869 134.547 222.819 138.185 219.955 141.977C219.274 142.88 218.603 143.789 217.948 144.712C218.304 144.439 218.665 144.176 219.021 143.918C219.935 143.247 220.863 142.591 221.823 141.983C222.783 141.374 223.753 140.78 224.739 140.223C225.755 139.65 226.849 139.165 227.829 138.525C227.871 138.5 227.912 138.572 227.871 138.587C226.854 139.067 225.915 139.774 224.981 140.393C224.021 141.033 223.062 141.683 222.117 142.354C221.194 143.015 220.26 143.665 219.341 144.335C218.578 144.893 217.824 145.496 217.03 146.018C215.28 148.556 213.645 151.172 212.21 153.902C211.307 155.62 210.502 157.38 209.785 159.17C209.976 159.072 210.167 158.98 210.358 158.887C210.843 158.639 211.328 158.391 211.813 158.144C212.747 157.664 213.691 157.199 214.63 156.73C216.415 155.837 218.237 155.006 219.981 154.036C220.961 153.494 221.921 152.922 222.819 152.251C222.86 152.22 222.896 152.287 222.86 152.313C219.64 154.8 215.977 156.621 212.365 158.458L210.796 159.253C210.368 159.47 209.935 159.712 209.491 159.908C208.531 162.411 207.742 164.981 207.138 167.612C205.93 172.87 205.084 178.226 204.434 183.577C203.784 188.954 203.438 194.351 203.237 199.759C203.211 200.435 203.185 201.111 203.149 201.782C203.134 202.05 202.736 202.071 202.726 201.792C202.607 199.057 202.741 196.302 202.881 193.572L202.891 193.583Z" fill="#263238"/>
<path d="M210.399 148.009C210.61 146.338 210.967 144.692 211.323 143.045C211.333 142.999 211.405 143.015 211.395 143.066C211.07 144.681 210.858 146.322 210.647 147.953C210.43 149.619 210.249 151.286 210.105 152.958C210.105 152.984 210.058 152.989 210.058 152.958C210.079 151.301 210.187 149.65 210.394 148.009H210.399Z" fill="#263238"/>
<path d="M217.664 152.132C218.727 151.291 219.935 150.631 221.106 149.944C221.684 149.604 222.272 149.279 222.855 148.959C223.459 148.623 224.094 148.34 224.692 147.999C224.733 147.973 224.775 148.04 224.733 148.061C224.155 148.391 223.608 148.783 223.036 149.134C222.447 149.495 221.864 149.862 221.276 150.223C220.12 150.925 218.985 151.699 217.762 152.287C217.654 152.339 217.571 152.204 217.664 152.132Z" fill="#263238"/>
<path opacity="0.1" d="M198.954 165.233C198.954 165.233 188.624 162.767 183.882 155.837C179.351 149.222 177.891 137.942 177.772 136.946C177.958 137.855 180.089 147.715 187.122 152.308C192.504 155.827 197.71 158.716 198.954 165.233Z" fill="#263238"/>
<path d="M189.424 147.385C191.24 149.134 192.602 151.193 193.232 153.66C193.237 153.68 193.206 153.691 193.201 153.67C192.427 151.379 191.142 149.114 189.372 147.442C189.336 147.406 189.387 147.349 189.424 147.385Z" fill="#263238"/>
<path d="M198.954 165.234C198.954 165.234 188.624 162.767 183.882 155.837C179.351 149.222 177.891 137.942 177.772 136.946C177.762 136.9 177.762 136.874 177.762 136.874C177.762 136.874 182.716 143.918 187.922 145.713C193.128 147.509 200.445 153.722 198.954 165.228V165.234Z" fill="#219653"/>
<path d="M179.594 140.765C180.554 142.643 181.555 144.506 182.788 146.224C183.985 147.896 185.43 149.32 187.035 150.595C188.438 151.709 189.919 152.721 191.343 153.809C191.333 153.794 191.322 153.773 191.312 153.758C191.044 153.36 190.76 152.979 190.466 152.602C189.873 151.848 189.228 151.131 188.577 150.429C187.293 149.036 185.982 147.669 184.831 146.162C184.197 145.326 183.634 144.439 183.175 143.494C183.154 143.453 183.226 143.427 183.247 143.469C184.924 146.962 188.268 149.191 190.657 152.143C190.997 152.561 191.317 152.994 191.611 153.448C191.818 153.768 192.071 154.124 192.205 154.496C193.505 155.559 194.702 156.72 195.729 158.056C195.641 157.38 195.497 156.704 195.316 156.049C195.058 155.125 194.723 154.253 194.222 153.433C194.197 153.391 194.259 153.35 194.284 153.391C194.769 154.207 195.208 155.084 195.487 155.992C195.714 156.73 195.822 157.468 195.863 158.221H195.868C196.384 158.918 196.844 159.65 197.262 160.399C197.22 160.177 197.179 159.955 197.133 159.738C196.926 158.711 196.699 157.684 196.436 156.668C195.894 154.609 195.162 152.612 193.949 150.847C193.923 150.806 193.985 150.765 194.011 150.806C195.208 152.55 196.111 154.49 196.761 156.498C197.091 157.509 197.355 158.541 197.587 159.583C197.7 160.089 197.803 160.6 197.901 161.111C197.953 161.374 198.01 161.647 198.051 161.916C199.109 164.145 199.847 166.539 200.435 168.918C201.488 173.201 202.143 177.602 202.638 181.978C203.154 186.575 203.428 191.219 203.35 195.843C203.34 196.426 203.309 197.004 203.273 197.582C203.263 197.731 203.041 197.752 203.036 197.597C202.932 195.306 202.876 193.01 202.742 190.724C202.607 188.433 202.406 186.147 202.164 183.861C201.684 179.382 200.987 174.909 200.012 170.507C199.176 166.73 198.087 162.932 196.023 159.619C194.991 157.963 193.753 156.492 192.298 155.187C190.848 153.887 189.264 152.746 187.741 151.544C186.224 150.347 184.764 149.041 183.557 147.524C182.256 145.884 181.235 144.047 180.27 142.194C180.027 141.725 179.774 141.26 179.532 140.796C179.511 140.754 179.573 140.708 179.594 140.754V140.765Z" fill="#263238"/>
<path d="M181.374 142.277C182.034 143.675 182.834 145.001 183.675 146.301C183.696 146.332 183.65 146.363 183.629 146.332C182.731 145.063 181.978 143.701 181.302 142.302C181.281 142.261 181.353 142.235 181.374 142.277Z" fill="#263238"/>
<path d="M238.144 160.667C238.144 160.667 238.309 175.347 229.532 179.583C220.755 183.825 216.049 180.29 210.084 181.709C210.084 181.709 210.089 181.709 210.095 181.704C210.327 181.353 214.584 175.239 221.354 173.551C228.32 171.818 236.034 166.787 238.144 160.667Z" fill="#219653"/>
<path opacity="0.1" d="M238.144 160.667C238.144 160.667 238.309 175.347 229.532 179.583C220.755 183.825 216.049 180.29 210.084 181.709C210.084 181.709 210.089 181.709 210.095 181.704C210.342 181.586 214.697 179.408 220.074 178.763C225.606 178.097 236.178 174.491 238.144 160.672V160.667Z" fill="black"/>
<path d="M209.506 181.967C210.554 181.023 211.725 180.213 213 179.604C213.185 179.516 213.381 179.439 213.572 179.362C213.665 179.243 213.763 179.135 213.867 179.026C214.13 178.753 214.403 178.49 214.692 178.242C215.244 177.767 215.832 177.339 216.457 176.967C217.912 176.111 219.506 175.512 220.993 174.723C221.034 174.702 221.075 174.769 221.029 174.79C220.296 175.172 219.584 175.595 218.867 176.008C218.17 176.415 217.458 176.802 216.782 177.236C216.173 177.628 215.59 178.061 215.043 178.536C214.888 178.67 214.739 178.82 214.594 178.969C215.564 178.639 216.555 178.386 217.561 178.18C219.166 177.855 220.791 177.628 222.396 177.282C223.186 177.112 223.96 176.905 224.723 176.653C225.451 176.064 226.178 175.481 226.87 174.847C227.701 174.078 228.469 173.242 229.14 172.329C229.171 172.287 229.233 172.328 229.207 172.37C228.124 173.768 226.963 175.177 225.611 176.338C225.987 176.193 226.364 176.039 226.736 175.873C229.718 174.516 232.37 172.365 234.212 169.65C234.238 169.609 234.305 169.65 234.279 169.692C232.675 172.019 230.637 174.011 228.227 175.502C227.019 176.25 225.75 176.859 224.403 177.313C222.855 177.829 221.25 178.139 219.651 178.438C218.082 178.732 216.514 179.031 215.002 179.542C213.603 180.017 212.282 180.708 211.101 181.596C208.841 183.288 207.097 185.605 205.843 188.118C204.181 191.451 203.387 195.177 202.948 198.851C202.927 199.011 202.685 199.011 202.695 198.846C203.108 192.674 204.754 186.255 209.511 181.973L209.506 181.967Z" fill="#263238"/>
<path d="M219.692 177.184C220.131 176.482 220.786 175.956 221.498 175.548C222.329 175.068 223.072 174.552 223.645 173.773C223.676 173.732 223.738 173.773 223.712 173.815C223.18 174.496 222.546 175.053 221.818 175.512C221.054 175.992 220.28 176.462 219.754 177.22C219.728 177.256 219.677 177.22 219.697 177.184H219.692Z" fill="#263238"/>
<path d="M214.269 197.726L213.867 205.796L212.644 240.776H194.233L193.01 205.796L192.607 197.726H214.269Z" fill="#455A64"/>
<path d="M214.269 197.726L213.903 205.089L192.912 203.887L192.607 197.726H214.269Z" fill="#37474F"/>
<path d="M215.559 194.522H191.317V200.925H215.559V194.522Z" fill="#455A64"/>
<path d="M49.6187 236.452H59.6187L104.134 155.197H93.7573L49.6187 236.452Z" fill="#A6A6A6"/>
<path d="M46.1924 236.452H49.6186L93.7573 155.197H90.2433L46.1924 236.452Z" fill="#C7C7C7"/>
<path d="M118.701 155.197H108.417V236.452H118.701V155.197Z" fill="#A6A6A6"/>
<path d="M108.412 155.197H104.691V236.452H108.412V155.197Z" fill="#C7C7C7"/>
<path d="M126.193 236.452H29.7319V240.776H126.193V236.452Z" fill="#C7C7C7"/>
<path d="M167.71 236.452H126.193V240.776H167.71V236.452Z" fill="#A6A6A6"/>
<path d="M143.469 177.143C143.469 180.791 141.178 183.753 138.34 183.789H91.3835V170.497H138.34C141.183 170.533 143.469 173.495 143.469 177.143Z" fill="#37474F"/>
<path d="M91.3733 183.789C94.2345 183.789 96.5539 180.813 96.5539 177.143C96.5539 173.472 94.2345 170.497 91.3733 170.497C88.5121 170.497 86.1926 173.472 86.1926 177.143C86.1926 180.813 88.5121 183.789 91.3733 183.789Z" fill="#455A64"/>
<path d="M91.3732 180.621C92.8722 180.621 94.0874 179.064 94.0874 177.143C94.0874 175.222 92.8722 173.665 91.3732 173.665C89.8742 173.665 88.6591 175.222 88.6591 177.143C88.6591 179.064 89.8742 180.621 91.3732 180.621Z" fill="#C7C7C7"/>
<path d="M143.469 201.353C143.469 205.002 141.178 207.963 138.34 208H91.3835V194.707H138.34C141.183 194.744 143.469 197.705 143.469 201.353Z" fill="#37474F"/>
<path d="M91.3733 208C94.2345 208 96.5539 205.024 96.5539 201.353C96.5539 197.683 94.2345 194.707 91.3733 194.707C88.5121 194.707 86.1926 197.683 86.1926 201.353C86.1926 205.024 88.5121 208 91.3733 208Z" fill="#455A64"/>
<path d="M94.0874 201.353C94.0874 203.273 92.8748 204.831 91.3732 204.831C89.8717 204.831 88.6591 203.273 88.6591 201.353C88.6591 199.434 89.8717 197.876 91.3732 197.876C92.8748 197.876 94.0874 199.434 94.0874 201.353Z" fill="#C7C7C7"/>
<path d="M92.364 147.055H86.0636V155.197H92.364V147.055Z" fill="#455A64"/>
<path d="M92.3692 155.197H141.214V147.055H92.3692V155.197Z" fill="#37474F"/>
<path d="M71.1151 66.0944H64.3503L79.3195 147.055H86.0843L71.1151 66.0944Z" fill="#455A64"/>
<path d="M71.1151 66.0944H107.823L122.787 147.055H86.0843L71.1151 66.0944Z" fill="#37474F"/>
<path d="M162.318 192.267C162.318 192.267 163.216 223.521 163.216 223.542C163.5 229.517 163.861 234.749 164.294 237.437C164.294 237.453 164.294 237.468 164.305 237.479C164.47 238.495 164.645 239.14 164.836 239.3C164.852 239.316 164.857 239.331 164.872 239.336C166.709 240.456 214.512 239.563 216.168 238.97C217.829 238.387 216.266 233.609 214.383 232.164C212.484 230.719 194.037 222.876 194.037 222.876L192.845 191.653L162.318 192.267Z" fill="#FFC4C0"/>
<path d="M163.01 216.364C163.01 216.364 163.216 223.521 163.216 223.541C163.5 229.517 163.861 234.749 164.294 237.437C164.294 237.453 164.294 237.468 164.305 237.479C164.527 238.48 164.717 239.135 164.836 239.3C164.852 239.316 164.857 239.331 164.872 239.336C166.709 240.456 214.511 239.563 216.168 238.97C217.829 238.387 216.266 233.609 214.382 232.164C212.484 230.719 194.037 222.876 194.037 222.876L193.779 216.101L163.015 216.364H163.01Z" fill="#EBEBEB"/>
<path d="M216.183 238.913C214.501 239.486 166.307 239.61 164.47 238.449C163.763 238.02 163.335 230.998 163.061 222.499C163.061 222.411 163.061 222.324 163.056 222.231L194.15 221.803L194.14 222.329C194.14 222.329 212.608 230.533 214.496 232.025C216.369 233.511 217.866 238.346 216.183 238.913Z" fill="#219653"/>
<path d="M215.631 237.045C207.504 236.865 174.718 236.916 166.673 237.355C166.606 237.355 166.606 237.401 166.673 237.406C174.723 237.757 207.509 237.448 215.631 237.179C215.801 237.174 215.801 237.05 215.631 237.045Z" fill="white"/>
<path d="M196.751 222.417C193.552 221.828 189.645 222.329 187.205 224.615C187.112 224.703 187.236 224.837 187.339 224.806C190.492 223.805 193.433 223.16 196.735 222.824C196.967 222.798 196.978 222.463 196.746 222.422L196.751 222.417Z" fill="#263238"/>
<path d="M199.062 223.805C195.863 223.216 191.957 223.717 189.516 226.003C189.423 226.091 189.547 226.225 189.651 226.194C192.803 225.193 195.744 224.548 199.047 224.212C199.279 224.187 199.289 223.851 199.057 223.81L199.062 223.805Z" fill="#263238"/>
<path d="M201.374 225.188C198.175 224.599 194.269 225.1 191.828 227.386C191.735 227.473 191.859 227.608 191.962 227.577C195.115 226.576 198.056 225.931 201.359 225.595C201.591 225.569 201.601 225.234 201.369 225.193L201.374 225.188Z" fill="#263238"/>
<path d="M216.916 237.179C217.778 237.51 217.602 240.404 216.978 240.642C216.354 240.874 163.804 240.781 162.911 240.585C162.019 240.389 162.339 237.179 163.376 237.014C164.413 236.849 216.916 237.179 216.916 237.179Z" fill="#263238"/>
<path d="M171.028 227.608C167.53 225.869 164.821 231.302 168.33 233.046C171.828 234.785 174.537 229.352 171.028 227.608Z" fill="white"/>
<path d="M186.193 221.911C186.193 221.911 187.623 219.651 188.386 219.362C189.15 219.078 195.26 218.954 195.693 219.243C196.121 219.527 194.15 221.803 194.15 221.803L186.193 221.911Z" fill="#219653"/>
<path opacity="0.1" d="M182.705 239.274C173.201 239.171 165.197 238.913 164.47 238.449C163.876 238.093 163.484 233.072 163.206 226.431L182.705 239.274Z" fill="black"/>
<path d="M193.748 214.868L164 215.239C164 215.239 160.239 155.404 156.518 153.691C150.259 150.811 111.229 147.989 97.1678 137.829C85.7488 129.578 89.918 102.369 89.918 102.369L121.951 102.385C121.951 102.385 124.263 113.308 124.954 116.213C124.954 116.213 174.052 126.25 184.145 137.318C193.732 147.829 193.748 214.873 193.748 214.873V214.868Z" fill="#FFC4C0"/>
<path opacity="0.1" d="M155.094 153.18C145.78 150.45 110.403 147.385 97.1679 137.824C85.7488 129.573 89.9129 102.359 89.9129 102.359L121.951 102.374C121.951 102.374 124.263 113.298 124.96 116.203C124.96 116.203 133.293 117.906 143.794 120.677L155.099 153.175L155.094 153.18Z" fill="black"/>
<path d="M129.898 149.62C129.898 149.62 146.688 127.911 161.286 125.099C161.286 125.099 140.816 119.232 125.718 115.414L121.946 102.38L89.9129 102.364C89.9129 102.364 85.4857 127.834 94.0203 136.405C102.55 144.976 129.893 149.62 129.893 149.62H129.898Z" fill="#219653"/>
<path opacity="0.1" d="M147.375 132.163C137.746 139.48 129.903 149.62 129.903 149.62C129.903 149.62 102.56 144.976 94.0257 136.41C85.491 127.839 89.9183 102.364 89.9183 102.364L121.957 102.38L125.729 115.419C128.938 116.229 132.395 117.137 135.847 118.051L147.38 132.163H147.375Z" fill="black"/>
<path d="M150.657 215.167L120.311 215.234C120.311 215.234 120.228 151.09 116.508 149.382C110.249 146.503 98.5199 145.744 89.9233 137.824C79.562 128.278 87.9419 102.364 87.9419 102.364L116.699 102.38C116.699 102.38 121.234 114.036 121.926 116.941C121.926 116.941 135.192 121.699 145.285 132.762C154.872 143.273 150.657 215.162 150.657 215.162V215.167Z" fill="#FFC4C0"/>
<path d="M120.053 192.267C120.053 192.267 120.378 223.521 120.378 223.542C120.661 229.517 121.023 234.749 121.456 237.437C121.456 237.453 121.456 237.468 121.466 237.479C121.632 238.495 121.807 239.14 121.998 239.3C122.013 239.316 122.019 239.331 122.034 239.336C123.871 240.456 164.785 239.563 166.441 238.97C168.103 238.387 166.539 233.609 164.656 232.164C162.757 230.719 151.198 222.876 151.198 222.876L150.579 191.653L120.053 192.267Z" fill="#FFC4C0"/>
<path d="M120.311 216.364C120.311 216.364 120.378 223.521 120.378 223.542C120.661 229.517 121.023 234.749 121.456 237.437C121.456 237.453 121.456 237.468 121.466 237.479C121.688 238.48 121.879 239.135 121.998 239.3C122.013 239.316 122.019 239.331 122.034 239.336C123.871 240.456 164.785 239.563 166.441 238.97C168.102 238.387 166.539 233.609 164.656 232.164C162.757 230.719 151.198 222.876 151.198 222.876L151.069 216.364H120.311Z" fill="#EBEBEB"/>
<path d="M166.462 238.913C164.779 239.486 123.468 239.61 121.631 238.449C120.925 238.02 120.496 230.998 120.223 222.499C120.223 222.411 120.223 222.324 120.218 222.231L151.312 221.803L151.301 222.329C151.301 222.329 162.886 230.533 164.769 232.025C166.642 233.511 168.139 238.346 166.456 238.913H166.462Z" fill="#219653"/>
<path d="M165.909 237.045C157.782 236.865 131.884 236.916 123.84 237.355C123.773 237.355 123.773 237.401 123.84 237.406C131.89 237.757 157.788 237.448 165.909 237.179C166.08 237.174 166.08 237.05 165.909 237.045Z" fill="white"/>
<path d="M149.537 224.491C144.913 223.227 140.858 223.129 135.383 224.816C135.233 224.862 135.429 225.048 135.584 225.033C140.259 224.646 144.624 224.579 149.521 224.899C149.867 224.919 149.877 224.584 149.537 224.491Z" fill="#263238"/>
<path d="M150.677 226.302C146.054 225.038 141.998 224.94 136.523 226.627C136.374 226.674 136.57 226.859 136.725 226.844C141.4 226.457 145.765 226.39 150.662 226.71C151.007 226.73 151.018 226.395 150.677 226.302Z" fill="#263238"/>
<path d="M151.823 228.113C147.199 226.849 143.144 226.751 137.669 228.438C137.519 228.485 137.715 228.671 137.87 228.655C142.545 228.268 146.91 228.201 151.807 228.521C152.153 228.542 152.163 228.206 151.823 228.113Z" fill="#263238"/>
<path d="M167.194 237.179C168.056 237.51 167.881 240.404 167.256 240.642C166.632 240.874 120.971 240.781 120.078 240.585C119.186 240.389 119.506 237.179 120.543 237.014C121.58 236.849 167.199 237.179 167.199 237.179H167.194Z" fill="#263238"/>
<path d="M124 226.921C121.208 226.921 121.203 232.995 124 232.995C126.792 232.995 126.797 226.921 124 226.921Z" fill="white"/>
<path d="M133.747 222.045C133.747 222.045 132.633 219.955 133.097 219.155C133.36 218.701 146.977 218.614 147.87 218.996C148.763 219.377 148.102 221.844 148.102 221.844L133.752 222.04L133.747 222.045Z" fill="#219653"/>
<path d="M87.978 102.328L116.735 102.369L122.751 116.776C122.751 116.776 134.129 121.012 143.298 129.918C143.298 129.918 132.586 127.292 125.068 132.462C116.76 138.174 114.645 149.619 114.645 149.619C114.645 149.619 92.7149 144.862 86.8995 135.889C80.6147 126.193 87.978 102.328 87.978 102.328Z" fill="#219653"/>
<path d="M117.06 142.478C116.895 142.844 116.735 143.205 116.585 143.556C110.429 142.333 91.7655 138.03 87.88 130.233C84.5208 123.489 87.5652 107.56 88.7004 102.328H89.8769C88.8242 107.178 85.7076 123.283 88.9068 129.722C92.5653 137.065 111.327 141.332 117.06 142.478Z" fill="white"/>
<path d="M118.401 139.919C118.19 140.275 117.989 140.631 117.803 140.987C110.434 139.661 93.9584 135.94 90.3619 128.706C87.2917 122.545 89.526 108.69 90.785 102.333H91.9667C90.7489 108.468 88.4734 122.344 91.3888 128.195C94.7789 135.017 111.41 138.67 118.396 139.919H118.401Z" fill="white"/>
<path opacity="0.1" d="M124.568 117.653C117.096 115.796 108.551 116.637 102.07 121.074C106.869 114.841 118.056 113.566 124.568 117.653Z" fill="black"/>
<path d="M113.427 72.8953C127.663 81.2132 139.619 83.8758 142.679 84.0873C150.367 84.6188 155.316 58.7466 155.791 54.0819C156.002 52.0024 138.897 51.4194 138.329 53.5814C137.049 58.4576 135.615 67.9572 135.347 67.9726C133.443 68.0604 122.565 66.146 112.782 65.5784C110.202 65.4288 109.392 70.5372 113.422 72.8953H113.427Z" fill="#FFC4C0"/>
<path opacity="0.1" d="M122.07 77.4361C119.335 76.1564 116.43 74.6549 113.422 72.8953C109.387 70.5372 110.202 65.4288 112.777 65.5784H112.787L122.065 77.4361H122.07Z" fill="black"/>
<path d="M155.347 39.9126C156.756 43.7362 156.575 52.6784 155.703 54.8198C154.831 56.9612 139.614 57.1625 138.138 55.3049C136.663 53.4473 132.916 40.2119 134.237 36.2645C135.553 32.3222 153.892 35.9497 155.352 39.9074L155.347 39.9126Z" fill="#FFC4C0"/>
<path d="M130.088 33.1777L123.525 33.1869L123.552 52.4492L130.115 52.44L130.088 33.1777Z" fill="#455A64"/>
<path d="M123.522 34.7917L120.369 34.7961L120.392 50.8386L123.544 50.8342L123.522 34.7917Z" fill="#455A64"/>
<path d="M123.527 34.7916L121.948 34.7938L121.971 50.8362L123.55 50.834L123.527 34.7916Z" fill="#263238"/>
<path d="M156.4 52.3693L162.963 52.3602L162.936 33.0979L156.373 33.1071L156.4 52.3693Z" fill="#455A64"/>
<path d="M162.961 50.7535L166.114 50.7491L166.091 34.7067L162.939 34.7111L162.961 50.7535Z" fill="#455A64"/>
<path d="M164.513 34.7294L162.934 34.7316L162.956 50.774L164.535 50.7718L164.513 34.7294Z" fill="#263238"/>
<path d="M156.371 39.9182L130.091 39.9641L130.101 45.6556L156.381 45.6097L156.371 39.9182Z" fill="#37474F"/>
<path d="M133.427 42.7403C135.115 44.087 135.734 41.3264 135.734 41.3264C135.734 41.3264 135.796 45.5112 138.071 46.2284C140.264 46.9147 140.899 43.5555 140.95 43.313C140.95 43.5349 141.11 47.3791 143.474 47.8641C145.93 48.3647 145.987 44.8868 145.987 44.6598C146.059 44.8662 147.034 47.5958 148.912 47.5545C152.137 47.4823 149.826 40.4389 151.105 38.1582C151.105 38.1582 155.218 39.8816 155.347 39.9074C155.347 39.9074 153.288 33.1581 150.115 31.6101C148.443 30.7949 147.354 32.1881 147.354 32.1881C147.354 32.1881 146.931 29.9383 145.084 29.4997C144.134 29.2778 142.932 30.5936 142.932 30.5936C142.932 30.5936 142.519 28.8083 140.852 28.5193C139.521 28.2819 138.525 29.6442 138.525 29.6442C138.525 29.6442 137.333 28.1117 135.894 28.3129C132.994 28.7102 129.82 39.8455 133.432 42.7351L133.427 42.7403Z" fill="#FFC4C0"/>
<path d="M138.329 29.8351C138.345 29.7989 138.293 29.7731 138.272 29.8093C136.337 33.2149 135.249 37.5544 135.682 41.4709C135.698 41.5999 135.909 41.6308 135.925 41.4863C136.25 37.3635 136.869 33.7257 138.329 29.8351Z" fill="#263238"/>
<path d="M142.927 30.5368C142.942 30.4955 142.875 30.4697 142.849 30.511C140.873 34.0301 139.784 38.9528 140.816 43.411C140.852 43.5658 141.038 43.6639 141.007 43.4884C140.548 40.4698 141.595 34.0405 142.927 30.542V30.5368Z" fill="#263238"/>
<path d="M146.167 44.9487C145.347 40.6349 145.987 36.4914 147.261 32.3325C147.277 32.2757 147.199 32.2602 147.173 32.3015C145.997 34.1694 145.46 36.9042 145.228 39.0663C145.001 41.1406 145.213 43.055 146.018 44.9745C146.049 45.0467 146.188 45.0364 146.167 44.9435V44.9487Z" fill="#263238"/>
<path d="M135.734 41.3264C135.827 42.1314 135.976 42.926 136.208 43.6897C136.446 44.4431 136.781 45.2068 137.344 45.697C137.622 45.9395 137.958 46.084 138.314 46.0788C138.675 46.0685 139.046 45.9859 139.346 45.8002C139.96 45.4441 140.326 44.7011 140.445 44.0096L140.749 42.2656L141.069 44.0096C141.208 44.7682 141.461 45.5525 141.838 46.2233C142.215 46.8941 142.767 47.4617 143.448 47.601C144.16 47.761 144.826 47.503 145.161 46.8683C145.517 46.2542 145.641 45.4286 145.636 44.6753L145.62 42.5803L146.317 44.5463C146.508 45.0778 146.776 45.6247 147.096 46.0994C147.421 46.569 147.829 46.987 148.309 47.1676C148.778 47.3482 149.351 47.2708 149.691 46.9302C150.058 46.5793 150.238 45.9911 150.357 45.4235C150.584 44.2522 150.564 43.0189 150.61 41.796C150.625 41.182 150.641 40.5679 150.687 39.9487C150.744 39.3398 150.796 38.7 151.1 38.1582C150.852 38.7258 150.873 39.3502 150.858 39.959C150.858 40.5679 150.889 41.182 150.92 41.796C150.981 43.0241 151.028 44.2573 150.858 45.5164C150.749 46.1356 150.61 46.8012 150.115 47.3482C149.599 47.9106 148.752 48.0241 148.087 47.7764C147.406 47.5236 146.926 47.0076 146.544 46.4864C146.167 45.9498 145.878 45.3925 145.646 44.7733L146.327 44.6443C146.343 45.5318 146.245 46.4039 145.796 47.2398C145.574 47.6526 145.192 48.0293 144.717 48.2099C144.243 48.3956 143.752 48.3956 143.288 48.2924C142.323 48.0706 141.657 47.3017 141.25 46.5484C140.832 45.7692 140.584 44.9591 140.44 44.0974H141.064C140.878 44.9746 140.403 45.8002 139.588 46.2388C139.186 46.4503 138.737 46.5277 138.293 46.5174C137.834 46.5019 137.39 46.2852 137.075 45.9808C136.441 45.3512 136.193 44.5256 135.997 43.7413C135.811 42.9415 135.729 42.1314 135.729 41.3213L135.734 41.3264Z" fill="#263238"/>
<path d="M137.101 53.1635C137.101 53.1635 125.228 40.6041 132.411 38.3698C134.547 37.7042 144.103 37.5236 144.176 39.4431C144.268 41.9199 140.295 42.7403 137.715 42.859C137.715 42.859 142.354 46.5639 140.739 50.5629C139.728 53.0706 137.096 53.1635 137.096 53.1635H137.101Z" fill="#FFC4C0"/>
<path d="M131.828 38.5916C132.617 38.1995 133.499 38.0292 134.361 37.8796C135.233 37.7351 136.116 37.6732 136.998 37.6525C138.763 37.6267 140.512 37.6525 142.292 37.9312C142.736 38.0086 143.185 38.1066 143.639 38.3233C143.861 38.4317 144.098 38.5865 144.279 38.8084C144.372 38.9167 144.439 39.0199 144.506 39.1902C144.557 39.3398 144.588 39.4843 144.588 39.6185C144.619 40.1809 144.387 40.6814 144.083 41.0736C143.763 41.4606 143.376 41.7547 142.973 41.9972C142.158 42.472 141.27 42.7196 140.393 42.8796C139.511 43.055 138.623 43.117 137.736 43.1582L137.906 42.6113C138.438 43.0602 138.887 43.5452 139.315 44.0716C139.738 44.5927 140.109 45.1603 140.414 45.7589C140.713 46.3574 140.93 47.0024 141.043 47.6629C141.162 48.3234 141.147 48.9994 141.012 49.6444C141.059 48.989 141.002 48.3337 140.837 47.7094C140.672 47.085 140.398 46.4968 140.073 45.9446C139.748 45.3925 139.366 44.8714 138.933 44.3966C138.505 43.9219 138.03 43.4678 137.535 43.0963L136.91 42.6216L137.705 42.5494C138.561 42.4668 139.423 42.3946 140.254 42.1985C141.08 42.0179 141.91 41.7857 142.607 41.3626C143.288 40.9601 143.897 40.3254 143.861 39.6494C143.881 39.056 142.968 38.7568 142.163 38.602C141.332 38.4368 140.465 38.3543 139.599 38.2717C138.732 38.1943 137.865 38.1221 136.998 38.1014C135.269 38.086 133.505 38.0602 131.828 38.5813V38.5916Z" fill="#263238"/>
<path d="M83.659 121.074C83.7674 121.193 126.358 114.144 126.358 114.144C126.791 113.634 124.789 92.9367 119.449 78.3959C117.669 73.5506 115.187 69.0305 113.272 66.1409C111.549 63.5402 104.314 61.4349 100.073 66.6517C86.0378 83.9325 83.2668 120.646 83.659 121.074Z" fill="#EBEBEB"/>
<path d="M110.434 73.1895C108.484 73.1998 104.578 69.4072 103.117 66.2802C103.019 66.0635 103.473 63.9015 103.907 61.2492C104.165 59.6393 104.407 57.8385 104.516 56.1769L114.763 59.371C114.763 59.371 113.52 62.7817 113.35 65.6765C113.339 65.919 113.35 66.1461 113.375 66.3628C113.375 66.3937 113.386 66.435 113.386 66.4763C113.515 67.7818 113.489 73.1688 110.434 73.1895Z" fill="#FFC4C0"/>
<path d="M103.979 60.7848C105.878 64.0563 108.907 67.3329 113.427 67.1316C113.417 66.853 113.406 66.6311 113.391 66.4763C113.391 66.435 113.381 66.3937 113.381 66.3628C113.345 66.1461 113.339 65.919 113.355 65.6765C113.52 62.7817 114.764 59.371 114.764 59.371L104.516 56.1769C104.428 57.6733 104.211 59.2987 103.979 60.7848Z" fill="#263238"/>
<path d="M103.061 44.0871C101.704 47.7094 102.994 58.4938 105.47 61.0325C109.062 64.7168 115.274 65.4288 118.484 61.0377C121.595 56.7807 119.671 42.7558 116.874 40.4132C112.751 36.9611 105.063 38.7362 103.061 44.0871Z" fill="#FFC4C0"/>
<path d="M112.075 50.5422C112.065 50.5164 112.024 50.5835 112.029 50.6145C112.142 51.3369 112.147 52.1831 111.518 52.5082C111.497 52.5185 111.508 52.5546 111.528 52.5495C112.318 52.3379 112.297 51.213 112.075 50.5474V50.5422Z" fill="#263238"/>
<path d="M111.337 49.8611C110.161 49.9179 110.357 52.2708 111.446 52.2192C112.519 52.1676 112.323 49.8147 111.337 49.8611Z" fill="#263238"/>
<path d="M116.518 50.1914C116.518 50.1604 116.58 50.2223 116.58 50.2533C116.616 50.986 116.781 51.8168 117.462 52.0025C117.483 52.0077 117.483 52.0438 117.462 52.0438C116.647 51.9974 116.44 50.8931 116.518 50.1965V50.1914Z" fill="#263238"/>
<path d="M117.106 49.3761C118.272 49.1903 118.556 51.533 117.478 51.7084C116.415 51.8787 116.126 49.536 117.106 49.3761Z" fill="#263238"/>
<path d="M110.558 48.2563C110.888 48.2047 111.177 48.1015 111.497 48.019C111.858 47.9261 112.153 47.8848 112.411 47.5959C112.55 47.4411 112.524 47.1366 112.385 46.987C112.06 46.6413 111.59 46.6464 111.152 46.7445C110.677 46.8477 110.336 47.0489 110.037 47.4307C109.743 47.7971 110.125 48.3234 110.553 48.2563H110.558Z" fill="#263238"/>
<path d="M117.849 47.859C117.519 47.8332 117.22 47.7558 116.895 47.6939C116.528 47.6268 116.229 47.6113 115.95 47.3379C115.801 47.1934 115.801 46.8889 115.93 46.729C116.224 46.3626 116.693 46.3317 117.137 46.3936C117.617 46.4607 117.973 46.6361 118.303 46.9921C118.623 47.3379 118.283 47.89 117.849 47.8539V47.859Z" fill="#263238"/>
<path d="M112.199 57.3999C112.38 57.565 112.565 57.792 112.834 57.8023C113.087 57.8127 113.381 57.6837 113.613 57.5856C113.633 57.5753 113.659 57.6011 113.644 57.6217C113.468 57.9107 113.076 58.1016 112.73 58.0603C112.395 58.0191 112.22 57.7353 112.127 57.436C112.111 57.3947 112.168 57.3741 112.194 57.3999H112.199Z" fill="#263238"/>
<path d="M112.875 55.1811C113.308 55.8003 113.928 56.1202 114.583 56.2182C114.877 56.2646 115.181 56.2595 115.481 56.2182C115.537 56.2182 115.599 56.2079 115.651 56.1924C115.703 56.1821 115.754 56.1769 115.811 56.1614C115.893 56.146 115.94 56.0737 115.95 55.9912C115.95 55.9602 115.95 55.9396 115.94 55.9138V55.8467C115.93 55.2843 115.837 54.4277 115.837 54.4277C116.048 54.5206 117.116 54.9488 117.085 54.6547C116.838 52.2295 116.559 49.5257 115.801 47.1624C115.78 47.085 115.656 47.1056 115.666 47.1882C115.811 49.5308 116.368 51.8322 116.554 54.18C116.213 54.0665 115.656 53.8549 115.362 53.8756C115.285 53.9014 115.568 55.5216 115.553 55.7744C115.553 55.7744 115.553 55.7848 115.553 55.8003C114.614 55.9602 113.886 55.7074 112.942 55.1088C112.885 55.0675 112.828 55.1191 112.875 55.1759V55.1811Z" fill="#263238"/>
<path d="M115.135 55.9499C115.135 55.9499 114.665 56.6465 113.99 56.9148C113.742 57.018 113.474 57.0644 113.185 56.9974C112.596 56.8684 112.555 56.3317 112.643 55.8725C112.715 55.4906 112.875 55.1604 112.875 55.1604C112.875 55.1604 113.762 55.9241 115.13 55.9499H115.135Z" fill="#263238"/>
<path d="M113.995 56.9148C113.747 57.018 113.479 57.0645 113.19 56.9974C112.601 56.8684 112.56 56.3317 112.648 55.8725C113.277 55.9086 113.912 56.3111 113.995 56.9148Z" fill="#FF99BA"/>
<path d="M102.803 52.8797C104.382 53.2977 105.249 51.9406 105.641 50.955C106.033 49.9695 105.615 43.9787 106.363 42.4978C107.111 41.0169 108.742 40.1758 110.042 40.5473C111.342 40.9137 113.04 42.601 114 42.503C114.954 42.4049 115.161 40.3306 115.827 40.3203C117.292 40.2996 118.881 43.9942 119.165 45.599C119.165 45.599 119.165 38.5194 112.245 37.828C105.398 37.1417 103.081 41.6206 102.509 43.6949C101.409 47.6681 102.803 52.8849 102.803 52.8849V52.8797Z" fill="#263238"/>
<path d="M105.181 52.5598C105.181 52.5598 102.916 49.0045 101.317 49.794C99.7118 50.5887 101.311 55.6661 103.117 56.435C104.929 57.1986 105.666 55.5371 105.666 55.5371L105.181 52.5598Z" fill="#FFC4C0"/>
<path d="M101.807 51.244C101.776 51.244 101.771 51.2801 101.796 51.2904C103.061 51.8683 103.69 53.0912 104.113 54.3554C103.752 53.8601 103.241 53.5763 102.581 54.0046C102.545 54.0252 102.581 54.082 102.612 54.0768C103.143 53.9891 103.52 54.0923 103.86 54.5309C104.098 54.8405 104.258 55.2275 104.423 55.5835C104.48 55.7022 104.691 55.6506 104.65 55.5164C104.65 55.5061 104.645 55.4958 104.64 55.4855C104.743 53.8446 103.566 51.4865 101.807 51.244Z" fill="#263238"/>
<path d="M100.408 73.6126C86.1719 81.9305 74.2162 84.593 71.1564 84.8046C63.468 85.3361 58.5195 59.4638 58.0448 54.7992C57.8332 52.7197 74.9386 52.1366 75.5062 54.2987C76.7859 59.1749 78.2204 68.6744 78.4887 68.6899C80.3928 68.7776 91.27 66.8633 101.053 66.2957C103.633 66.146 104.444 71.2544 100.414 73.6126H100.408Z" fill="#FFC4C0"/>
<path d="M58.4834 40.6299C57.0747 44.4535 57.2553 53.3957 58.1274 55.5371C58.9994 57.6785 74.2163 57.8798 75.692 56.0222C77.1678 54.1646 80.9139 40.9292 79.593 36.9818C78.2772 33.0395 59.9385 36.667 58.4783 40.6247L58.4834 40.6299Z" fill="#FFC4C0"/>
<path d="M83.7116 53.1509L90.2751 53.1601L90.302 33.8978L83.7385 33.8887L83.7116 53.1509Z" fill="#455A64"/>
<path d="M90.2827 51.5521L93.4354 51.5565L93.4578 35.5141L90.3051 35.5097L90.2827 51.5521Z" fill="#455A64"/>
<path d="M90.2939 35.5038L90.2715 51.5462L91.8504 51.5484L91.8728 35.506L90.2939 35.5038Z" fill="#263238"/>
<path d="M57.466 33.8369L50.9025 33.8278L50.8756 53.09L57.4391 53.0992L57.466 33.8369Z" fill="#455A64"/>
<path d="M50.8953 35.4325L47.7426 35.4281L47.7202 51.4705L50.8729 51.4749L50.8953 35.4325Z" fill="#455A64"/>
<path d="M49.3178 35.4366L49.2954 51.479L50.8744 51.4812L50.8968 35.4388L49.3178 35.4366Z" fill="#263238"/>
<path d="M57.4451 46.3197L83.725 46.3656L83.7349 40.6741L57.4551 40.6283L57.4451 46.3197Z" fill="#37474F"/>
<path d="M80.4031 43.4575C78.7158 44.8043 78.0966 42.0437 78.0966 42.0437C78.0966 42.0437 78.0346 46.2285 75.7591 46.9457C73.5661 47.632 72.9314 44.2728 72.8798 44.0303C72.8746 44.2522 72.7198 48.0964 70.3566 48.5814C67.9004 49.0819 67.8436 45.6041 67.8436 45.3771C67.7714 45.5835 66.7962 48.3131 64.9179 48.2718C61.6929 48.1996 64.0046 41.1562 62.7249 38.8755C62.7249 38.8755 58.6124 40.5989 58.4834 40.6247C58.4834 40.6247 60.5422 33.8754 63.7156 32.3274C65.3875 31.5121 66.4762 32.9053 66.4762 32.9053C66.4762 32.9053 66.8994 30.6556 68.7466 30.217C69.6961 29.9951 70.8984 31.3109 70.8984 31.3109C70.8984 31.3109 71.3112 29.5255 72.9778 29.2366C74.3091 28.9992 75.305 30.3615 75.305 30.3615C75.305 30.3615 76.497 28.8289 77.9366 29.0302C80.8365 29.4275 84.0099 40.5628 80.3979 43.4524L80.4031 43.4575Z" fill="#FFC4C0"/>
<path d="M75.5011 30.5524C75.4857 30.5162 75.5373 30.4904 75.5579 30.5266C77.4929 33.9322 78.5817 38.2717 78.1482 42.1882C78.1327 42.3172 77.9212 42.3481 77.9057 42.2036C77.5806 38.0808 76.9614 34.443 75.5011 30.5524Z" fill="#263238"/>
<path d="M70.9088 31.2541C70.8933 31.2128 70.9604 31.187 70.9862 31.2283C72.9625 34.7474 74.0512 39.6701 73.0192 44.1283C72.9831 44.2831 72.7973 44.3811 72.8283 44.2057C73.2875 41.1871 72.2401 34.7577 70.9088 31.2593V31.2541Z" fill="#263238"/>
<path d="M67.6631 45.6659C68.4835 41.3522 67.8437 37.2087 66.5692 33.0497C66.5537 32.9981 66.6311 32.9775 66.6569 33.0188C67.8334 34.8867 68.37 37.6215 68.6022 39.7835C68.8292 41.8579 68.6177 43.7722 67.8127 45.6917C67.7818 45.764 67.6425 45.7537 67.6631 45.6608V45.6659Z" fill="#263238"/>
<path d="M78.0966 42.0437C78.0037 42.8487 77.8541 43.6433 77.6219 44.407C77.3845 45.1604 77.0491 45.924 76.4867 46.4142C76.208 46.6568 75.8726 46.8013 75.5166 46.7961C75.1554 46.7858 74.7839 46.6981 74.4846 46.5175C73.8705 46.1614 73.5042 45.4184 73.3855 44.7269L73.0811 42.9829L72.7611 44.7269C72.6218 45.4854 72.369 46.2698 71.9923 46.9406C71.6156 47.6114 71.0635 48.179 70.3824 48.3183C69.6703 48.4782 69.0047 48.2203 68.6693 47.5856C68.3132 46.9715 68.1894 46.1459 68.1945 45.3926L68.21 43.2976L67.5134 45.2636C67.3225 45.7951 67.0542 46.342 66.7343 46.8167C66.4092 47.2863 66.0015 47.7043 65.5217 47.8849C65.0521 48.0655 64.4793 47.988 64.1388 47.6475C63.7724 47.2966 63.5918 46.7084 63.4731 46.1408C63.2461 44.9694 63.2667 43.7362 63.2203 42.5133C63.2048 41.8992 63.1893 41.2852 63.1429 40.666C63.0861 40.0571 63.0345 39.4173 62.7301 38.8755C62.9778 39.4431 62.9571 40.0675 62.9726 40.6763C62.9726 41.2852 62.9417 41.8992 62.9107 42.5133C62.8488 43.7414 62.8023 44.9746 62.9726 46.2336C63.081 46.8528 63.2203 47.5185 63.7157 48.0655C64.2317 48.6279 65.0779 48.7414 65.7435 48.4937C66.4247 48.2409 66.9045 47.7249 67.2864 47.2089C67.6631 46.6722 67.952 46.115 68.1842 45.4958L67.5031 45.3668C67.4876 46.2543 67.5857 47.1263 68.0346 47.9622C68.2565 48.375 68.6383 48.7517 69.113 48.9323C69.5877 49.1181 70.0779 49.1181 70.5423 49.0149C71.5073 48.793 72.1729 48.0242 72.5805 47.2708C72.9985 46.4917 73.2462 45.6815 73.3907 44.8198H72.7663C72.9521 45.697 73.4268 46.5226 74.2421 46.9612C74.6445 47.1728 75.0935 47.2502 75.5372 47.2399C75.9965 47.2244 76.4402 47.0077 76.755 46.7032C77.3897 46.0737 77.6373 45.2481 77.8334 44.4638C78.0192 43.664 78.1017 42.8539 78.1017 42.0437H78.0966Z" fill="#263238"/>
<path d="M76.7292 53.8808C76.7292 53.8808 88.6023 41.3214 81.4196 39.0871C79.2834 38.4215 69.727 38.2409 69.6548 40.1604C69.5619 42.6372 73.5351 43.4576 76.1151 43.5763C76.1151 43.5763 71.4763 47.2812 73.0914 51.2802C74.1027 53.7879 76.7343 53.8808 76.7343 53.8808H76.7292Z" fill="#FFC4C0"/>
<path d="M82.0027 39.3089C81.2132 38.9168 80.3309 38.7465 79.4691 38.5968C78.5971 38.4524 77.7147 38.3904 76.8324 38.3698C75.0677 38.344 73.3184 38.3698 71.5382 38.6484C71.0945 38.7258 70.6455 38.8239 70.1915 39.0406C69.9696 39.149 69.7322 39.3038 69.5516 39.5256C69.4587 39.634 69.3917 39.7372 69.3246 39.9075C69.273 40.0571 69.242 40.2016 69.242 40.3358C69.2111 40.8982 69.4433 41.3987 69.7477 41.7909C70.0676 42.1779 70.4546 42.472 70.8571 42.7145C71.6724 43.1892 72.5599 43.4369 73.4371 43.5969C74.3195 43.7723 75.207 43.8342 76.0945 43.8755L75.9242 43.3286C75.3927 43.7775 74.9438 44.2625 74.5156 44.7888C74.0924 45.31 73.7209 45.8776 73.4165 46.4762C73.1172 47.0747 72.9005 47.7197 72.7869 48.3802C72.6683 49.0407 72.6837 49.7166 72.8179 50.3616C72.7715 49.7063 72.8282 49.051 72.9934 48.4266C73.1585 47.8023 73.432 47.214 73.757 46.6619C74.0821 46.1098 74.4691 45.5886 74.8974 45.1139C75.3257 44.6392 75.8004 44.1851 76.2957 43.8136L76.9201 43.3389L76.1203 43.2666C75.2638 43.1841 74.402 43.1118 73.5713 42.9158C72.7457 42.7352 71.9149 42.503 71.2183 42.0798C70.5372 41.6774 69.9283 41.0427 69.9644 40.3667C69.9438 39.7733 70.8571 39.474 71.6621 39.3192C72.4928 39.1541 73.3597 39.0716 74.2266 38.989C75.0935 38.9116 75.9603 38.8394 76.8272 38.8187C78.5558 38.8032 80.3206 38.7774 81.9976 39.2986L82.0027 39.3089Z" fill="#263238"/>
<path d="M101.358 66.2441C107.287 66.724 98.6901 91.6468 93.4992 91.2443C88.303 90.8418 97.3382 65.9139 101.358 66.2441Z" fill="#FFC4C0"/>
<path d="M98.5611 74.9593C98.365 75.0161 98.1741 75.078 97.978 75.1399C98.8294 74.6497 99.655 74.1286 100.465 73.5713C100.481 73.561 100.465 73.53 100.445 73.5403C99.4435 74.0305 98.4579 74.5362 97.4878 75.0832C97.0286 75.3412 96.559 75.5837 96.1101 75.8572C95.6044 76.1668 95.1142 76.497 94.5879 76.7705C94.526 76.8015 94.5724 76.8995 94.6292 76.8685C95.1297 76.6002 95.6457 76.3835 96.1566 76.1358C96.6003 75.9191 97.0286 75.6766 97.4569 75.4392C97.6013 75.4083 97.751 75.3773 97.8955 75.3309C98.1328 75.2586 98.365 75.1812 98.5921 75.0883C99.0513 74.9077 99.5002 74.7065 99.9543 74.5156C99.9595 74.5156 99.9543 74.5053 99.9543 74.5053C99.5002 74.6807 99.0358 74.8252 98.5663 74.9593H98.5611Z" fill="#263238"/>
<path d="M20.6245 240.776C90.0575 240.461 167.943 240.456 237.375 240.776C167.943 241.096 90.0575 241.091 20.6245 240.776Z" fill="#263238"/>
<path d="M35.7482 221.52L29.1847 221.529L29.2116 240.792L35.7751 240.782L35.7482 221.52Z" fill="#455A64"/>
<path d="M29.1921 223.139L26.0393 223.144L26.0617 239.186L29.2145 239.182L29.1921 223.139Z" fill="#455A64"/>
<path d="M29.1972 223.134L27.6183 223.136L27.6407 239.179L29.2196 239.177L29.1972 223.134Z" fill="#263238"/>
<path d="M62.0857 240.727L68.6492 240.718L68.6223 221.456L62.0588 221.465L62.0857 240.727Z" fill="#455A64"/>
<path d="M68.6521 239.112L71.8048 239.107L71.7824 223.065L68.6297 223.069L68.6521 239.112Z" fill="#455A64"/>
<path d="M70.1778 223.077L68.5989 223.079L68.6213 239.122L70.2002 239.119L70.1778 223.077Z" fill="#263238"/>
<path d="M62.0345 228.257L35.7546 228.303L35.7646 233.995L62.0444 233.949L62.0345 228.257Z" fill="#37474F"/>
<path d="M103.732 194.707H99.005V200.146H103.732V194.707Z" fill="#DBDBDB"/>
<path d="M105.228 198.381H97.5189V204.589H105.228V198.381Z" fill="#C7C7C7"/>
<path d="M110.532 212.277V240.688H92.2092V212.277C92.2092 206.653 95.7438 202.313 101.368 202.313C106.993 202.313 110.532 206.653 110.532 212.277Z" fill="#219653"/>
<path d="M110.532 217.277H92.2092V222.092H110.532V217.277Z" fill="#455A64"/>
<path d="M110.532 224.336H92.2092V226.746H110.532V224.336Z" fill="#455A64"/>
</svg>
