<svg width="32" height="32" viewBox="0 0 32 32" fill="none" xmlns="http://www.w3.org/2000/svg">
<path d="M26.6667 2.66666H5.33341C3.86675 2.66666 2.66675 3.86666 2.66675 5.33332V21.3333C2.66675 22.8 3.86675 24 5.33341 24H10.6667V28C10.6667 28.8 11.2001 29.3333 12.0001 29.3333H12.6667C12.9334 29.3333 13.3334 29.2 13.6001 28.9333L18.5334 24H26.6667C28.1334 24 29.3334 22.8 29.3334 21.3333V5.33332C29.3334 3.86666 28.1334 2.66666 26.6667 2.66666ZM14.6667 17.3333H9.33341V11.7333L11.0667 7.99999H13.7334L11.8667 12H14.6667V17.3333ZM22.6667 17.3333H17.3334V11.7333L19.0667 7.99999H21.7334L19.8667 12H22.6667V17.3333Z" fill="#219653"/>
</svg>
