<svg width="23" height="23" viewBox="0 0 23 23" fill="none" xmlns="http://www.w3.org/2000/svg">
<path d="M16.9033 2.78513C16.9155 2.73952 16.9365 2.69677 16.9653 2.6593C16.994 2.62184 17.0298 2.5904 17.0707 2.56679C17.1116 2.54318 17.1567 2.52785 17.2035 2.52169C17.2504 2.51553 17.2979 2.51865 17.3435 2.53087C18.6795 2.89025 19.7783 3.71412 20.4359 4.85423C20.4619 4.89514 20.4794 4.94088 20.4873 4.9887C20.4951 5.03653 20.4932 5.08545 20.4817 5.13253C20.4702 5.17961 20.4492 5.22386 20.4202 5.26264C20.3911 5.30142 20.3545 5.33391 20.3125 5.35817C20.2705 5.38242 20.2241 5.39794 20.176 5.40378C20.1279 5.40963 20.0791 5.40568 20.0325 5.39217C19.986 5.37867 19.9426 5.35589 19.9051 5.3252C19.8676 5.29451 19.8367 5.25656 19.8142 5.21361C19.2518 4.23701 18.3075 3.53084 17.1602 3.22177C17.0684 3.19768 16.9899 3.13824 16.9417 3.05643C16.8936 2.97463 16.8798 2.87709 16.9033 2.78513ZM6.92703 20.5616C6.04746 19.868 5.31524 18.9867 4.62344 17.789C4.57371 17.7108 4.49568 17.6548 4.40566 17.6328C4.31563 17.6107 4.22056 17.6243 4.14031 17.6707C4.06006 17.7171 4.00084 17.7927 3.97501 17.8817C3.94919 17.9707 3.95876 18.0663 4.00172 18.1484C4.74024 19.4278 5.52906 20.3738 6.48231 21.1258C6.54553 21.1757 6.62368 21.2029 6.70422 21.2031C6.77891 21.2031 6.85175 21.1799 6.91262 21.1366C6.9735 21.0934 7.01937 21.0322 7.04388 20.9616C7.06839 20.8911 7.0703 20.8147 7.04936 20.743C7.02842 20.6713 6.98566 20.6079 6.92703 20.5616ZM20.2239 14.8898C19.7938 16.4923 18.848 17.9086 17.5328 18.9201C16.2175 19.9316 14.6058 20.4819 12.9466 20.4861C12.283 20.4857 11.6224 20.3981 10.9817 20.2256C10.0234 19.9718 9.12492 19.5304 8.33839 18.9269C7.55187 18.3235 6.8929 17.57 6.39965 16.71L2.98559 10.7965C2.77748 10.436 2.67818 10.023 2.69965 9.60727C2.72112 9.19157 2.86246 8.79097 3.1066 8.45383C3.35074 8.11669 3.68724 7.85742 4.07549 7.70732C4.46374 7.55722 4.88714 7.52271 5.29457 7.60794L4.66117 6.51005C4.39557 6.02766 4.3246 5.46193 4.46282 4.92888C4.60103 4.39583 4.93795 3.93586 5.40449 3.6433C5.87102 3.35073 6.43181 3.24776 6.97185 3.35548C7.51189 3.4632 7.99025 3.77346 8.30883 4.22263C8.43705 3.82587 8.67756 3.47479 9.00123 3.21192C9.3249 2.94905 9.71784 2.78567 10.1325 2.74155C10.5471 2.69744 10.9656 2.77448 11.3373 2.96337C11.7091 3.15225 12.0181 3.44486 12.2269 3.80576L13.9411 6.7706C14.0711 6.37558 14.3125 6.02657 14.6362 5.7656C14.96 5.50463 15.3523 5.34285 15.7659 5.29975C16.1795 5.25664 16.5967 5.33405 16.9673 5.52264C17.338 5.71124 17.6461 6.00298 17.8547 6.36271L19.4719 9.16404C19.9699 10.0212 20.293 10.9686 20.4224 11.9514C20.5518 12.9342 20.4849 13.933 20.2257 14.8898H20.2239ZM18.8493 9.52341L17.2321 6.72208C17.139 6.55615 17.0139 6.41035 16.864 6.29314C16.7141 6.17592 16.5425 6.08963 16.359 6.03926C16.1755 5.98889 15.9839 5.97545 15.7952 5.99971C15.6064 6.02397 15.4244 6.08545 15.2597 6.18059C15.0949 6.27574 14.9506 6.40264 14.8353 6.55395C14.7199 6.70526 14.6358 6.87797 14.5877 7.06206C14.5396 7.24614 14.5285 7.43795 14.5551 7.62635C14.5816 7.81475 14.6454 7.996 14.7425 8.15958L15.641 9.71568C15.6647 9.75655 15.6801 9.80169 15.6863 9.84852C15.6925 9.89535 15.6895 9.94295 15.6773 9.9886C15.6651 10.0342 15.644 10.077 15.6153 10.1145C15.5866 10.152 15.5507 10.1835 15.5098 10.2071C14.767 10.636 14.225 11.3423 14.003 12.1707C13.7809 12.9992 13.897 13.8819 14.3257 14.6247C14.3493 14.6656 14.3646 14.7108 14.3707 14.7576C14.3769 14.8044 14.3738 14.8519 14.3615 14.8975C14.3493 14.9431 14.3282 14.9858 14.2995 15.0233C14.2708 15.0607 14.2349 15.0921 14.194 15.1157C14.1532 15.1393 14.108 15.1546 14.0612 15.1608C14.0144 15.167 13.9669 15.1638 13.9213 15.1516C13.8757 15.1394 13.833 15.1183 13.7955 15.0896C13.7581 15.0608 13.7266 15.025 13.703 14.9841C13.21 14.1292 13.0539 13.121 13.2655 12.1571C13.4771 11.1932 14.041 10.343 14.8468 9.77318L11.6043 4.16064C11.4112 3.8355 11.0977 3.59955 10.7318 3.50395C10.3659 3.40834 9.97708 3.46077 9.64958 3.64987C9.32207 3.83897 9.08228 4.14952 8.98217 4.5142C8.88205 4.87888 8.92968 5.26833 9.11473 5.59814L11.4507 9.64111C11.4983 9.72367 11.5112 9.82179 11.4865 9.91387C11.4619 10.0059 11.4016 10.0844 11.319 10.1321C11.2365 10.1798 11.1384 10.1927 11.0463 10.168C10.9542 10.1433 10.8757 10.083 10.828 10.0005L7.77336 4.70959C7.68026 4.54365 7.55514 4.39785 7.40527 4.28064C7.25539 4.16342 7.08374 4.07713 6.90026 4.02676C6.71678 3.97639 6.52512 3.96295 6.33641 3.98721C6.14769 4.01147 5.96567 4.07295 5.8009 4.1681C5.63613 4.26324 5.49188 4.39014 5.37653 4.54145C5.26117 4.69276 5.177 4.86547 5.1289 5.04956C5.0808 5.23364 5.06972 5.42545 5.09631 5.61385C5.1229 5.80225 5.18662 5.9835 5.28379 6.14708L8.69785 12.0597C8.72145 12.1006 8.73676 12.1457 8.74292 12.1925C8.74907 12.2393 8.74595 12.2869 8.73373 12.3325C8.72151 12.3781 8.70043 12.4208 8.67169 12.4582C8.64295 12.4957 8.60711 12.5271 8.56623 12.5507C8.52535 12.5743 8.48022 12.5896 8.43342 12.5958C8.38662 12.6019 8.33907 12.5988 8.29347 12.5866C8.24788 12.5744 8.20514 12.5533 8.1677 12.5245C8.13025 12.4958 8.09883 12.46 8.07523 12.4191L6.09867 8.99603C6.00557 8.8301 5.88046 8.6843 5.73058 8.56708C5.5807 8.44987 5.40905 8.36358 5.22557 8.31321C5.04209 8.26284 4.85044 8.24939 4.66172 8.27365C4.47301 8.29791 4.29099 8.3594 4.12621 8.45454C3.96144 8.54968 3.8172 8.67659 3.70184 8.8279C3.58649 8.97921 3.50232 9.15192 3.45422 9.336C3.40611 9.52009 3.39503 9.71189 3.42162 9.9003C3.44821 10.0887 3.51194 10.2699 3.6091 10.4335L7.02316 16.347C7.46128 17.1425 8.05366 17.8425 8.76563 18.4062C9.47761 18.9699 10.2949 19.386 11.1696 19.6299C12.0443 19.8739 12.9589 19.941 13.8599 19.8272C14.7608 19.7133 15.63 19.4209 16.4166 18.9671C17.2032 18.5133 17.8913 17.9071 18.4407 17.184C18.9902 16.461 19.3898 15.6356 19.6164 14.7562C19.8429 13.8768 19.8917 12.961 19.76 12.0625C19.6283 11.164 19.3187 10.3008 18.8493 9.52341Z" fill="black"/>
</svg>
