<svg width="25" height="22" viewBox="0 0 25 22" fill="none" xmlns="http://www.w3.org/2000/svg">
<path d="M4.46414 0C4.03557 0 3.64627 0.231846 3.45966 0.597383L0.11139 7.15506C0.0192211 7.33562 -0.0168748 7.53729 0.00731313 7.73655C0.0315011 7.93581 0.114976 8.12444 0.248 8.28045L11.6321 21.6073C11.7368 21.73 11.869 21.8289 12.0191 21.8968C12.1693 21.9647 12.3336 22 12.5 22C12.6664 22 12.8307 21.9647 12.9809 21.8968C13.131 21.8289 13.2632 21.73 13.3679 21.6073L24.752 8.28045C24.885 8.12444 24.9685 7.93581 24.9927 7.73655C25.0169 7.53729 24.9808 7.33562 24.8886 7.15506L21.5403 0.597383C21.4491 0.418422 21.3064 0.267459 21.1287 0.161801C20.9511 0.0561429 20.7456 6.63564e-05 20.5359 0H4.46414ZM3.00341 6.34614L5.16416 2.11538H8.45707L7.06151 6.34614H3.00341ZM3.27484 8.46152H6.93383L9.49459 15.7435L3.27484 8.46152ZM9.28655 8.46152H15.7135L12.5 17.5974L9.28655 8.46152ZM18.0662 8.46152H21.7252L15.5054 15.7435L18.0662 8.46152ZM21.9966 6.34614H17.9376L16.542 2.11538H19.835L21.9966 6.34614ZM15.6001 6.34614H9.39995L10.7955 2.11538H14.2045L15.6001 6.34614Z" fill="#E4A951"/>
</svg>
