<svg xmlns="http://www.w3.org/2000/svg" xmlns:xlink="http://www.w3.org/1999/xlink" width="1000" zoomAndPan="magnify" viewBox="0 0 750 749.999995" height="1000" preserveAspectRatio="xMidYMid meet" version="1.0"><defs><clipPath id="e4bca62d26"><path d="M 82.195312 125.019531 L 667.945312 125.019531 L 667.945312 656 L 82.195312 656 Z M 82.195312 125.019531 " clip-rule="nonzero"/></clipPath><clipPath id="974161d65b"><path d="M 88.5 130.730469 L 661.5 130.730469 L 661.5 649.730469 L 88.5 649.730469 Z M 88.5 130.730469 " clip-rule="nonzero"/></clipPath><clipPath id="de5c54b730"><path d="M 293.316406 273.71875 L 456.816406 273.71875 L 456.816406 437.21875 L 293.316406 437.21875 Z M 293.316406 273.71875 " clip-rule="nonzero"/></clipPath></defs><g clip-path="url(#e4bca62d26)"><path fill="#efefef" d="M 82.195312 293.488281 C 82.195312 343.527344 103.984375 388.410156 138.660156 419.226562 L 375.1875 655.828125 L 612.53125 418.40625 C 646.503906 387.707031 667.945312 343.175781 667.945312 293.605469 C 667.945312 200.675781 592.617188 125.324219 499.597656 125.324219 C 450.277344 125.324219 405.878906 146.535156 375.070312 180.402344 C 344.375 146.535156 299.859375 125.207031 250.421875 125.207031 C 157.519531 125.207031 82.195312 200.558594 82.195312 293.488281 " fill-opacity="1" fill-rule="nonzero"/></g><g clip-path="url(#974161d65b)"><path fill="#ffffff" d="M 88.5 295.394531 C 88.5 344.300781 109.816406 388.171875 143.738281 418.292969 L 375.113281 649.546875 L 607.292969 417.492188 C 640.527344 387.484375 661.5 343.957031 661.5 295.507812 C 661.5 204.679688 587.8125 131.03125 496.820312 131.03125 C 448.574219 131.03125 405.140625 151.765625 375 184.867188 C 344.972656 151.765625 301.425781 130.917969 253.066406 130.917969 C 162.1875 130.917969 88.5 204.566406 88.5 295.394531 " fill-opacity="1" fill-rule="nonzero"/></g><g clip-path="url(#de5c54b730)"><path fill="#ff3131" d="M 395.460938 437.214844 C 395.460938 437.214844 395.460938 437.214844 354.347656 437.214844 C 354.347656 437.214844 354.347656 437.214844 354.347656 376.503906 C 354.347656 376.503906 354.347656 376.503906 293.316406 376.503906 C 293.316406 376.503906 293.316406 376.503906 293.316406 334.75 C 293.316406 334.75 293.316406 334.75 354.347656 334.75 C 354.347656 334.75 354.347656 334.75 354.347656 273.71875 C 354.347656 273.71875 354.347656 273.71875 395.460938 273.71875 C 395.460938 273.71875 395.460938 273.71875 395.460938 334.75 C 395.460938 334.75 395.460938 334.75 456.8125 334.75 C 456.8125 334.75 456.8125 334.75 456.8125 376.503906 C 456.8125 376.503906 456.8125 376.503906 395.460938 376.503906 C 395.460938 376.503906 395.460938 376.503906 395.460938 437.214844 Z M 395.460938 437.214844 " fill-opacity="1" fill-rule="nonzero"/></g></svg>